G04 #@! TF.GenerationSoftware,KiCad,Pcbnew,(5.1.5-0-10_14)*
G04 #@! TF.CreationDate,2021-02-17T02:27:33-05:00*
G04 #@! TF.ProjectId,ADBT,41444254-2e6b-4696-9361-645f70636258,rev?*
G04 #@! TF.SameCoordinates,Original*
G04 #@! TF.FileFunction,Legend,Bot*
G04 #@! TF.FilePolarity,Positive*
%FSLAX46Y46*%
G04 Gerber Fmt 4.6, Leading zero omitted, Abs format (unit mm)*
G04 Created by KiCad (PCBNEW (5.1.5-0-10_14)) date 2021-02-17 02:27:33*
%MOMM*%
%LPD*%
G04 APERTURE LIST*
%ADD10C,0.400000*%
%ADD11C,0.450000*%
%ADD12C,4.200000*%
%ADD13C,1.090600*%
%ADD14C,1.400000*%
%ADD15O,2.000000X1.170000*%
%ADD16C,1.900000*%
%ADD17C,4.100000*%
%ADD18C,3.300000*%
%ADD19C,0.900000*%
%ADD20C,1.448000*%
G04 APERTURE END LIST*
%LPC*%
D10*
X113273900Y-109965500D02*
G75*
G02X113673900Y-109565500I200000J200000D01*
G01*
D11*
X112823900Y-111065500D02*
G75*
G03X112823900Y-111565500I0J-250000D01*
G01*
D10*
X113273900Y-112665500D02*
G75*
G03X113673900Y-113065500I200000J-200000D01*
G01*
D11*
X114773900Y-113515500D02*
G75*
G03X115273900Y-113515500I250000J0D01*
G01*
D10*
X116773900Y-112665500D02*
G75*
G02X116373900Y-113065500I-200000J-200000D01*
G01*
D11*
X117223900Y-111065500D02*
G75*
G02X117223900Y-111565500I0J-250000D01*
G01*
D10*
X116773900Y-109965500D02*
G75*
G03X116373900Y-109565500I-200000J200000D01*
G01*
D11*
X114773900Y-109115500D02*
G75*
G02X115273900Y-109115500I250000J0D01*
G01*
D12*
X115123900Y-111315500D02*
G75*
G03X115123900Y-111315500I-100000J0D01*
G01*
D10*
X148325900Y-109965500D02*
G75*
G02X148725900Y-109565500I200000J200000D01*
G01*
D11*
X147875900Y-111065500D02*
G75*
G03X147875900Y-111565500I0J-250000D01*
G01*
D10*
X148325900Y-112665500D02*
G75*
G03X148725900Y-113065500I200000J-200000D01*
G01*
D11*
X149825900Y-113515500D02*
G75*
G03X150325900Y-113515500I250000J0D01*
G01*
D10*
X151825900Y-112665500D02*
G75*
G02X151425900Y-113065500I-200000J-200000D01*
G01*
D11*
X152275900Y-111065500D02*
G75*
G02X152275900Y-111565500I0J-250000D01*
G01*
D10*
X151825900Y-109965500D02*
G75*
G03X151425900Y-109565500I-200000J200000D01*
G01*
D11*
X149825900Y-109115500D02*
G75*
G02X150325900Y-109115500I250000J0D01*
G01*
D12*
X150175900Y-111315500D02*
G75*
G03X150175900Y-111315500I-100000J0D01*
G01*
D10*
X113273900Y-74913500D02*
G75*
G02X113673900Y-74513500I200000J200000D01*
G01*
D11*
X112823900Y-76013500D02*
G75*
G03X112823900Y-76513500I0J-250000D01*
G01*
D10*
X113273900Y-77613500D02*
G75*
G03X113673900Y-78013500I200000J-200000D01*
G01*
D11*
X114773900Y-78463500D02*
G75*
G03X115273900Y-78463500I250000J0D01*
G01*
D10*
X116773900Y-77613500D02*
G75*
G02X116373900Y-78013500I-200000J-200000D01*
G01*
D11*
X117223900Y-76013500D02*
G75*
G02X117223900Y-76513500I0J-250000D01*
G01*
D10*
X116773900Y-74913500D02*
G75*
G03X116373900Y-74513500I-200000J200000D01*
G01*
D11*
X114773900Y-74063500D02*
G75*
G02X115273900Y-74063500I250000J0D01*
G01*
D12*
X115123900Y-76263500D02*
G75*
G03X115123900Y-76263500I-100000J0D01*
G01*
D10*
X148325900Y-74913500D02*
G75*
G02X148725900Y-74513500I200000J200000D01*
G01*
D11*
X147875900Y-76013500D02*
G75*
G03X147875900Y-76513500I0J-250000D01*
G01*
D10*
X148325900Y-77613500D02*
G75*
G03X148725900Y-78013500I200000J-200000D01*
G01*
D11*
X149825900Y-78463500D02*
G75*
G03X150325900Y-78463500I250000J0D01*
G01*
D10*
X151825900Y-77613500D02*
G75*
G02X151425900Y-78013500I-200000J-200000D01*
G01*
D11*
X152275900Y-76013500D02*
G75*
G02X152275900Y-76513500I0J-250000D01*
G01*
D10*
X151825900Y-74913500D02*
G75*
G03X151425900Y-74513500I-200000J200000D01*
G01*
D11*
X149825900Y-74063500D02*
G75*
G02X150325900Y-74063500I250000J0D01*
G01*
D12*
X150175900Y-76263500D02*
G75*
G03X150175900Y-76263500I-100000J0D01*
G01*
D13*
X134493000Y-82169000D03*
X142113000Y-83185000D03*
X142113000Y-81153000D03*
D14*
X108700000Y-105950000D03*
X108700000Y-110800000D03*
D15*
X106050000Y-104775000D03*
X106050000Y-111975000D03*
D16*
X115300000Y-97200000D03*
X115300000Y-90400000D03*
X112800000Y-90400000D03*
X112800000Y-97200000D03*
D17*
X109800000Y-87050000D03*
X109800000Y-100550000D03*
X109000000Y-93800000D03*
D18*
X115023900Y-111315500D03*
D19*
X115023900Y-109115500D03*
X117223900Y-111315500D03*
X115023900Y-113515500D03*
X112823900Y-111315500D03*
X113473900Y-109765500D03*
X116573900Y-109765500D03*
X116573900Y-112865500D03*
X113473900Y-112865500D03*
D18*
X150075900Y-111315500D03*
D19*
X150075900Y-109115500D03*
X152275900Y-111315500D03*
X150075900Y-113515500D03*
X147875900Y-111315500D03*
X148525900Y-109765500D03*
X151625900Y-109765500D03*
X151625900Y-112865500D03*
X148525900Y-112865500D03*
D18*
X115023900Y-76263500D03*
D19*
X115023900Y-74063500D03*
X117223900Y-76263500D03*
X115023900Y-78463500D03*
X112823900Y-76263500D03*
X113473900Y-74713500D03*
X116573900Y-74713500D03*
X116573900Y-77813500D03*
X113473900Y-77813500D03*
D18*
X150075900Y-76263500D03*
D19*
X150075900Y-74063500D03*
X152275900Y-76263500D03*
X150075900Y-78463500D03*
X147875900Y-76263500D03*
X148525900Y-74713500D03*
X151625900Y-74713500D03*
X151625900Y-77813500D03*
X148525900Y-77813500D03*
D20*
X114350800Y-116535200D03*
X158953200Y-112242600D03*
X106146600Y-75336400D03*
X158953200Y-75336400D03*
M02*
