M48
; DRILL file {KiCad (5.1.5-0-10_14)} date Wednesday, February 17, 2021 at 02:27:34 AM
; FORMAT={-:-/ absolute / inch / decimal}
; #@! TF.CreationDate,2021-02-17T02:27:34-05:00
; #@! TF.GenerationSoftware,Kicad,Pcbnew,(5.1.5-0-10_14)
FMAT,2
INCH
T1C0.0079
T2C0.0118
T3C0.0157
T4C0.0197
T5C0.0276
T6C0.0394
T7C0.0906
T8C0.1299
T9C0.0390
T10C0.0454
%
G90
G05
T1
X4.137Y-2.924
X4.137Y-3.124
X4.137Y-3.324
X4.137Y-3.524
X4.137Y-3.6925
X4.137Y-3.861
X4.137Y-4.061
X4.137Y-4.2667
X4.137Y-4.461
X4.337Y-2.924
X4.337Y-4.461
X4.4134Y-4.0846
X4.4213Y-3.2854
X4.45Y-2.611
X4.45Y-2.811
X4.45Y-4.574
X4.45Y-4.774
X4.594Y-4.774
X4.645Y-4.6225
X4.65Y-2.611
X4.6594Y-2.8642
X4.7087Y-3.2244
X4.7126Y-3.1654
X4.7224Y-3.0394
X4.7343Y-3.1319
X4.7598Y-3.3406
X4.7854Y-2.8642
X4.7854Y-3.2657
X4.7933Y-3.5669
X4.8071Y-3.2323
X4.8209Y-3.5335
X4.8209Y-3.6004
X4.85Y-2.611
X4.85Y-4.774
X4.8583Y-3.0394
X4.8625Y-4.42
X4.8625Y-4.47
X4.8858Y-2.6791
X4.9016Y-2.8445
X4.905Y-4.645
X4.9272Y-4.124
X4.9311Y-2.7402
X4.9469Y-3.2205
X4.9547Y-3.4154
X4.96Y-4.005
X4.96Y-4.1675
X4.9705Y-3.7028
X4.9705Y-3.8445
X5.015Y-3.51
X5.0157Y-3.6909
X5.0157Y-3.8484
X5.0295Y-2.8209
X5.05Y-2.611
X5.05Y-4.774
X5.06Y-3.91
X5.06Y-4.0825
X5.06Y-4.2525
X5.0768Y-2.7677
X5.0807Y-4.7323
X5.0846Y-4.6476
X5.11Y-3.43
X5.11Y-4.2525
X5.1102Y-2.7402
X5.1358Y-3.2894
X5.1555Y-4.3346
X5.16Y-3.43
X5.16Y-4.2525
X5.1654Y-3.378
X5.1752Y-4.6083
X5.1949Y-4.6614
X5.21Y-3.43
X5.21Y-4.2525
X5.2185Y-2.611
X5.2224Y-4.3287
X5.2224Y-4.7323
X5.23Y-4.774
X5.26Y-3.43
X5.26Y-4.2525
X5.2697Y-4.7323
X5.2736Y-3.1713
X5.285Y-4.285
X5.2874Y-3.3819
X5.2913Y-3.0394
X5.31Y-4.2525
X5.3386Y-3.3091
X5.3543Y-4.5157
X5.36Y-4.2525
X5.374Y-4.6043
X5.387Y-2.611
X5.3957Y-4.3996
X5.41Y-3.43
X5.41Y-4.2525
X5.419Y-4.774
X5.4193Y-4.5689
X5.4311Y-4.687
X5.445Y-3.18
X5.4488Y-3.378
X5.46Y-4.2525
X5.495Y-3.29
X5.5059Y-4.3996
X5.51Y-3.43
X5.51Y-4.2525
X5.5256Y-2.9114
X5.5295Y-2.752
X5.5335Y-3.002
X5.5374Y-2.8484
X5.545Y-3.18
X5.5472Y-4.439
X5.56Y-3.43
X5.56Y-4.2525
X5.587Y-2.611
X5.587Y-4.774
X5.5886Y-3.3445
X5.5886Y-4.4409
X5.6004Y-4.7323
X5.61Y-4.2525
X5.635Y-3.43
X5.6535Y-4.5157
X5.66Y-4.2525
X5.685Y-3.43
X5.71Y-4.2525
X5.7343Y-3.2047
X5.735Y-3.43
X5.7795Y-4.5157
X5.785Y-3.43
X5.785Y-4.2525
X5.787Y-2.611
X5.787Y-4.774
X5.835Y-4.2525
X5.86Y-3.43
X5.885Y-4.2525
X5.915Y-3.2511
X5.9173Y-4.5315
X5.935Y-3.43
X5.987Y-2.611
X5.987Y-2.811
X5.987Y-4.574
X5.987Y-4.774
X6.035Y-3.7025
X6.035Y-3.84
X6.035Y-3.9775
X6.07Y-2.899
X6.07Y-3.099
X6.07Y-4.486
T2
X4.1575Y-3.0866
X4.1575Y-3.1457
X4.1929Y-3.0531
X4.1929Y-3.1791
X4.2283Y-3.0866
X4.2283Y-3.1457
X4.2598Y-3.1378
X4.2913Y-3.0945
X4.3209Y-4.3189
X4.3504Y-4.122
X4.3858Y-4.1555
X4.5Y-4.6725
X4.5039Y-4.1555
X4.5295Y-3.1654
X4.5295Y-3.2244
X4.535Y-4.6375
X4.5394Y-4.122
X4.565Y-3.1319
X4.565Y-3.2579
X4.5725Y-4.6625
X4.6004Y-3.1654
X4.6004Y-3.2244
X4.6125Y-4.59
X4.6398Y-3.1654
X4.6398Y-3.2244
X4.6475Y-4.555
X4.6732Y-3.8839
X4.6752Y-3.1319
X4.6752Y-3.2579
X4.68Y-4.4625
X4.68Y-4.52
X4.7087Y-3.9173
X4.715Y-4.4275
X4.7205Y-4.2382
X4.7441Y-3.8839
X4.7475Y-4.7275
X4.75Y-4.4625
X4.7525Y-4.37
X4.7525Y-4.52
X4.7539Y-4.2028
X4.7539Y-4.2736
X4.7677Y-3.6004
X4.7677Y-3.6713
X4.7972Y-2.935
X4.8012Y-3.6358
X4.8075Y-4.3425
X4.813Y-4.2028
X4.813Y-4.2736
X4.815Y-3.1575
X4.8169Y-2.6791
X4.8169Y-2.7382
X4.8307Y-2.8996
X4.8307Y-2.9705
X4.8465Y-3.1142
X4.8465Y-4.2382
X4.8524Y-2.6457
X4.8524Y-2.7717
X4.8625Y-4.37
X4.8625Y-4.52
X4.8878Y-2.7382
X4.8898Y-2.8996
X4.8898Y-2.9705
X4.895Y-4.305
X4.9232Y-2.935
X4.9275Y-4.34
X4.93Y-4.27
X4.9475Y-4.37
X4.9875Y-4.27
X4.9875Y-4.3425
X5.02Y-4.305
X5.0575Y-4.37
X5.0591Y-2.9114
X5.0925Y-3.2047
X5.1024Y-2.9547
X5.126Y-3.1693
X5.126Y-3.2402
X5.1693Y-2.9429
X5.1752Y-2.6476
X5.185Y-3.1693
X5.185Y-3.2402
X5.2047Y-2.9094
X5.2185Y-3.2047
X5.275Y-3.29
X5.3327Y-3.0768
X5.3937Y-2.6988
X5.4272Y-2.6634
X5.4272Y-2.7343
X5.4532Y-3.29
X5.4862Y-2.6634
X5.5197Y-2.6988
X5.6732Y-3.2854
X5.7067Y-3.25
X5.7067Y-3.3209
X5.7657Y-3.25
X5.7657Y-3.3209
X5.7992Y-3.2854
X5.9475Y-3.345
X5.9775Y-3.22
X5.9825Y-3.31
X5.985Y-3.38
X6.035Y-3.38
X6.0375Y-3.31
X6.0425Y-3.22
X5.8219Y-4.3825
X5.8475Y-4.3215
X5.8475Y-4.4435
X5.9085Y-4.2959
X5.9085Y-4.4691
X5.9695Y-4.3215
X5.9695Y-4.4435
X5.9951Y-4.3825
X4.4419Y-3.0025
X4.4675Y-2.9415
X4.4675Y-3.0635
X4.5285Y-2.9159
X4.5285Y-3.0891
X4.5895Y-2.9415
X4.5895Y-3.0635
X4.6151Y-3.0025
X5.8219Y-3.0025
X5.8475Y-2.9415
X5.8475Y-3.0635
X5.9085Y-2.9159
X5.9085Y-3.0891
X5.9695Y-2.9415
X5.9695Y-3.0635
X5.9951Y-3.0025
X5.6942Y-3.7573
X5.6942Y-3.8016
X5.6942Y-3.846
X5.7385Y-3.7573
X5.7385Y-3.846
X5.7829Y-3.7573
X5.7829Y-3.8016
X5.7829Y-3.846
X4.4419Y-4.3825
X4.4675Y-4.3215
X4.4675Y-4.4435
X4.5285Y-4.2959
X4.5285Y-4.4691
X4.5895Y-4.3215
X4.5895Y-4.4435
X4.6151Y-4.3825
T3
X4.6634Y-3.9587
X4.6693Y-3.8248
X4.7697Y-3.9587
X4.9449Y-3.3327
X4.9862Y-3.2854
X4.9862Y-3.3799
X5.1634Y-3.0925
X5.2106Y-3.0256
X5.2126Y-2.9685
X5.265Y-3.615
X5.2992Y-2.9685
X5.335Y-3.4275
X5.335Y-3.565
X5.376Y-3.1516
X5.378Y-2.9547
X5.405Y-3.615
X5.4193Y-2.9075
X5.4193Y-3.002
X5.4862Y-2.752
X5.4862Y-2.8898
X5.4862Y-3.002
X5.5354Y-2.8031
X5.5354Y-2.9528
X5.5354Y-3.0807
X5.5827Y-2.7028
X5.5827Y-2.8524
X5.5827Y-3.002
X5.6476Y-4.3425
X5.6476Y-4.4528
X5.6929Y-2.7028
X5.6929Y-2.8524
X5.6929Y-3.002
X5.6929Y-3.1516
X5.7224Y-4.2953
X5.7402Y-2.7776
X5.7402Y-2.9272
X5.7402Y-3.0768
X5.7874Y-2.7028
X5.7874Y-2.8524
X5.7972Y-4.4528
X5.8976Y-2.7028
X5.8976Y-2.8524
X5.9449Y-2.7776
X5.985Y-3.4275
X5.985Y-3.565
X6.035Y-3.4275
X6.035Y-3.565
X6.035Y-4.115
X6.035Y-4.255
T5
X4.2795Y-4.1713
X4.2795Y-4.3622
T6
X4.4409Y-3.5591
X4.4409Y-3.8268
X4.5394Y-3.5591
X4.5394Y-3.8268
T7
X4.2913Y-3.6929
X4.3228Y-3.4272
X4.3228Y-3.9587
T8
X5.9085Y-4.3825
X4.5285Y-3.0025
X5.9085Y-3.0025
X4.5285Y-4.3825
T9
X5.295Y-3.235
X5.595Y-3.195
X5.595Y-3.275
T10
X4.502Y-4.588
X6.258Y-4.419
X4.179Y-2.966
X6.258Y-2.966
T4
G00X4.1594Y-4.125
M15
G01X4.1909Y-4.125
M16
G05
G00X4.1909Y-4.4085
M15
G01X4.1594Y-4.4085
M16
G05
T0
M30
