G04 #@! TF.GenerationSoftware,KiCad,Pcbnew,(5.1.5-0-10_14)*
G04 #@! TF.CreationDate,2021-02-17T02:27:33-05:00*
G04 #@! TF.ProjectId,ADBT,41444254-2e6b-4696-9361-645f70636258,rev?*
G04 #@! TF.SameCoordinates,Original*
G04 #@! TF.FileFunction,Soldermask,Bot*
G04 #@! TF.FilePolarity,Negative*
%FSLAX46Y46*%
G04 Gerber Fmt 4.6, Leading zero omitted, Abs format (unit mm)*
G04 Created by KiCad (PCBNEW (5.1.5-0-10_14)) date 2021-02-17 02:27:33*
%MOMM*%
%LPD*%
G04 APERTURE LIST*
%ADD10C,0.400000*%
%ADD11C,0.450000*%
%ADD12C,4.200000*%
%ADD13C,0.100000*%
G04 APERTURE END LIST*
D10*
X113273900Y-109965500D02*
G75*
G02X113673900Y-109565500I200000J200000D01*
G01*
D11*
X112823900Y-111065500D02*
G75*
G03X112823900Y-111565500I0J-250000D01*
G01*
D10*
X113273900Y-112665500D02*
G75*
G03X113673900Y-113065500I200000J-200000D01*
G01*
D11*
X114773900Y-113515500D02*
G75*
G03X115273900Y-113515500I250000J0D01*
G01*
D10*
X116773900Y-112665500D02*
G75*
G02X116373900Y-113065500I-200000J-200000D01*
G01*
D11*
X117223900Y-111065500D02*
G75*
G02X117223900Y-111565500I0J-250000D01*
G01*
D10*
X116773900Y-109965500D02*
G75*
G03X116373900Y-109565500I-200000J200000D01*
G01*
D11*
X114773900Y-109115500D02*
G75*
G02X115273900Y-109115500I250000J0D01*
G01*
D12*
X115123900Y-111315500D02*
G75*
G03X115123900Y-111315500I-100000J0D01*
G01*
D10*
X148325900Y-109965500D02*
G75*
G02X148725900Y-109565500I200000J200000D01*
G01*
D11*
X147875900Y-111065500D02*
G75*
G03X147875900Y-111565500I0J-250000D01*
G01*
D10*
X148325900Y-112665500D02*
G75*
G03X148725900Y-113065500I200000J-200000D01*
G01*
D11*
X149825900Y-113515500D02*
G75*
G03X150325900Y-113515500I250000J0D01*
G01*
D10*
X151825900Y-112665500D02*
G75*
G02X151425900Y-113065500I-200000J-200000D01*
G01*
D11*
X152275900Y-111065500D02*
G75*
G02X152275900Y-111565500I0J-250000D01*
G01*
D10*
X151825900Y-109965500D02*
G75*
G03X151425900Y-109565500I-200000J200000D01*
G01*
D11*
X149825900Y-109115500D02*
G75*
G02X150325900Y-109115500I250000J0D01*
G01*
D12*
X150175900Y-111315500D02*
G75*
G03X150175900Y-111315500I-100000J0D01*
G01*
D10*
X113273900Y-74913500D02*
G75*
G02X113673900Y-74513500I200000J200000D01*
G01*
D11*
X112823900Y-76013500D02*
G75*
G03X112823900Y-76513500I0J-250000D01*
G01*
D10*
X113273900Y-77613500D02*
G75*
G03X113673900Y-78013500I200000J-200000D01*
G01*
D11*
X114773900Y-78463500D02*
G75*
G03X115273900Y-78463500I250000J0D01*
G01*
D10*
X116773900Y-77613500D02*
G75*
G02X116373900Y-78013500I-200000J-200000D01*
G01*
D11*
X117223900Y-76013500D02*
G75*
G02X117223900Y-76513500I0J-250000D01*
G01*
D10*
X116773900Y-74913500D02*
G75*
G03X116373900Y-74513500I-200000J200000D01*
G01*
D11*
X114773900Y-74063500D02*
G75*
G02X115273900Y-74063500I250000J0D01*
G01*
D12*
X115123900Y-76263500D02*
G75*
G03X115123900Y-76263500I-100000J0D01*
G01*
D10*
X148325900Y-74913500D02*
G75*
G02X148725900Y-74513500I200000J200000D01*
G01*
D11*
X147875900Y-76013500D02*
G75*
G03X147875900Y-76513500I0J-250000D01*
G01*
D10*
X148325900Y-77613500D02*
G75*
G03X148725900Y-78013500I200000J-200000D01*
G01*
D11*
X149825900Y-78463500D02*
G75*
G03X150325900Y-78463500I250000J0D01*
G01*
D10*
X151825900Y-77613500D02*
G75*
G02X151425900Y-78013500I-200000J-200000D01*
G01*
D11*
X152275900Y-76013500D02*
G75*
G02X152275900Y-76513500I0J-250000D01*
G01*
D10*
X151825900Y-74913500D02*
G75*
G03X151425900Y-74513500I-200000J200000D01*
G01*
D11*
X149825900Y-74063500D02*
G75*
G02X150325900Y-74063500I250000J0D01*
G01*
D12*
X150175900Y-76263500D02*
G75*
G03X150175900Y-76263500I-100000J0D01*
G01*
D13*
G36*
X114561981Y-115839022D02*
G01*
X114561984Y-115839023D01*
X114561983Y-115839023D01*
X114693743Y-115893600D01*
X114753435Y-115933485D01*
X114812322Y-115972832D01*
X114913168Y-116073678D01*
X114992401Y-116192259D01*
X115046978Y-116324019D01*
X115074800Y-116463891D01*
X115074800Y-116606509D01*
X115046978Y-116746381D01*
X115046977Y-116746383D01*
X114992400Y-116878143D01*
X114913167Y-116996723D01*
X114812323Y-117097567D01*
X114693743Y-117176800D01*
X114693742Y-117176801D01*
X114693741Y-117176801D01*
X114561981Y-117231378D01*
X114422109Y-117259200D01*
X114279491Y-117259200D01*
X114139619Y-117231378D01*
X114007859Y-117176801D01*
X114007858Y-117176801D01*
X114007857Y-117176800D01*
X113889277Y-117097567D01*
X113788433Y-116996723D01*
X113709200Y-116878143D01*
X113654623Y-116746383D01*
X113654622Y-116746381D01*
X113626800Y-116606509D01*
X113626800Y-116463891D01*
X113654622Y-116324019D01*
X113709199Y-116192259D01*
X113788432Y-116073678D01*
X113889278Y-115972832D01*
X113948165Y-115933485D01*
X114007857Y-115893600D01*
X114139617Y-115839023D01*
X114139616Y-115839023D01*
X114139619Y-115839022D01*
X114279491Y-115811200D01*
X114422109Y-115811200D01*
X114561981Y-115839022D01*
G37*
G36*
X150207159Y-113082793D02*
G01*
X150241082Y-113096844D01*
X150289055Y-113116715D01*
X150362758Y-113165962D01*
X150425438Y-113228642D01*
X150474685Y-113302345D01*
X150494556Y-113350318D01*
X150508607Y-113384241D01*
X150525900Y-113471178D01*
X150525900Y-113559822D01*
X150508607Y-113646759D01*
X150494556Y-113680682D01*
X150474685Y-113728655D01*
X150425438Y-113802358D01*
X150362758Y-113865038D01*
X150289055Y-113914285D01*
X150241082Y-113934156D01*
X150207159Y-113948207D01*
X150120222Y-113965500D01*
X150031578Y-113965500D01*
X149944641Y-113948207D01*
X149910718Y-113934156D01*
X149862745Y-113914285D01*
X149789042Y-113865038D01*
X149726362Y-113802358D01*
X149677115Y-113728655D01*
X149657244Y-113680682D01*
X149643193Y-113646759D01*
X149625900Y-113559822D01*
X149625900Y-113471178D01*
X149643193Y-113384241D01*
X149657244Y-113350318D01*
X149677115Y-113302345D01*
X149726362Y-113228642D01*
X149789042Y-113165962D01*
X149862745Y-113116715D01*
X149910718Y-113096844D01*
X149944641Y-113082793D01*
X150031578Y-113065500D01*
X150120222Y-113065500D01*
X150207159Y-113082793D01*
G37*
G36*
X115155159Y-113082793D02*
G01*
X115189082Y-113096844D01*
X115237055Y-113116715D01*
X115310758Y-113165962D01*
X115373438Y-113228642D01*
X115422685Y-113302345D01*
X115442556Y-113350318D01*
X115456607Y-113384241D01*
X115473900Y-113471178D01*
X115473900Y-113559822D01*
X115456607Y-113646759D01*
X115442556Y-113680682D01*
X115422685Y-113728655D01*
X115373438Y-113802358D01*
X115310758Y-113865038D01*
X115237055Y-113914285D01*
X115189082Y-113934156D01*
X115155159Y-113948207D01*
X115068222Y-113965500D01*
X114979578Y-113965500D01*
X114892641Y-113948207D01*
X114858718Y-113934156D01*
X114810745Y-113914285D01*
X114737042Y-113865038D01*
X114674362Y-113802358D01*
X114625115Y-113728655D01*
X114605244Y-113680682D01*
X114591193Y-113646759D01*
X114573900Y-113559822D01*
X114573900Y-113471178D01*
X114591193Y-113384241D01*
X114605244Y-113350318D01*
X114625115Y-113302345D01*
X114674362Y-113228642D01*
X114737042Y-113165962D01*
X114810745Y-113116715D01*
X114858718Y-113096844D01*
X114892641Y-113082793D01*
X114979578Y-113065500D01*
X115068222Y-113065500D01*
X115155159Y-113082793D01*
G37*
G36*
X148657159Y-109332793D02*
G01*
X148691082Y-109346844D01*
X148739055Y-109366715D01*
X148812758Y-109415962D01*
X148875438Y-109478642D01*
X148924685Y-109552345D01*
X148944556Y-109600318D01*
X148958607Y-109634241D01*
X148975900Y-109721178D01*
X148975900Y-109809822D01*
X148958607Y-109896759D01*
X148944556Y-109930682D01*
X148924685Y-109978655D01*
X148895385Y-110022505D01*
X148890769Y-110031142D01*
X148887924Y-110040522D01*
X148886963Y-110050276D01*
X148887924Y-110060030D01*
X148890769Y-110069410D01*
X148895389Y-110078054D01*
X148901607Y-110085631D01*
X148909184Y-110091849D01*
X148917828Y-110096469D01*
X148927208Y-110099314D01*
X148936962Y-110100275D01*
X148946716Y-110099314D01*
X148956096Y-110096469D01*
X148964740Y-110091849D01*
X148972311Y-110085636D01*
X149024086Y-110033861D01*
X149294332Y-109853289D01*
X149294333Y-109853288D01*
X149470233Y-109780428D01*
X149594613Y-109728908D01*
X149754001Y-109697204D01*
X149913388Y-109665500D01*
X150238412Y-109665500D01*
X150397799Y-109697204D01*
X150557187Y-109728908D01*
X150681567Y-109780428D01*
X150857467Y-109853288D01*
X150857468Y-109853289D01*
X151127714Y-110033861D01*
X151179489Y-110085636D01*
X151187060Y-110091849D01*
X151195704Y-110096469D01*
X151205084Y-110099314D01*
X151214838Y-110100275D01*
X151224592Y-110099314D01*
X151233972Y-110096469D01*
X151242616Y-110091849D01*
X151250193Y-110085631D01*
X151256411Y-110078054D01*
X151261031Y-110069410D01*
X151263876Y-110060030D01*
X151264837Y-110050276D01*
X151263876Y-110040522D01*
X151261031Y-110031142D01*
X151256415Y-110022505D01*
X151227115Y-109978655D01*
X151207244Y-109930682D01*
X151193193Y-109896759D01*
X151175900Y-109809822D01*
X151175900Y-109721178D01*
X151193193Y-109634241D01*
X151207244Y-109600318D01*
X151227115Y-109552345D01*
X151276362Y-109478642D01*
X151339042Y-109415962D01*
X151412745Y-109366715D01*
X151460718Y-109346844D01*
X151494641Y-109332793D01*
X151581578Y-109315500D01*
X151670222Y-109315500D01*
X151757159Y-109332793D01*
X151791082Y-109346844D01*
X151839055Y-109366715D01*
X151912758Y-109415962D01*
X151975438Y-109478642D01*
X152024685Y-109552345D01*
X152044556Y-109600318D01*
X152058607Y-109634241D01*
X152075900Y-109721178D01*
X152075900Y-109809822D01*
X152058607Y-109896759D01*
X152044556Y-109930682D01*
X152024685Y-109978655D01*
X151975438Y-110052358D01*
X151912758Y-110115038D01*
X151839055Y-110164285D01*
X151801918Y-110179667D01*
X151757159Y-110198207D01*
X151670222Y-110215500D01*
X151581578Y-110215500D01*
X151494641Y-110198207D01*
X151449882Y-110179667D01*
X151412745Y-110164285D01*
X151368895Y-110134985D01*
X151360258Y-110130369D01*
X151350878Y-110127524D01*
X151341124Y-110126563D01*
X151331370Y-110127524D01*
X151321990Y-110130369D01*
X151313346Y-110134989D01*
X151305769Y-110141207D01*
X151299551Y-110148784D01*
X151294931Y-110157428D01*
X151292086Y-110166808D01*
X151291125Y-110176562D01*
X151292086Y-110186316D01*
X151294931Y-110195696D01*
X151299551Y-110204340D01*
X151305764Y-110211911D01*
X151357539Y-110263686D01*
X151357540Y-110263688D01*
X151538112Y-110533933D01*
X151563746Y-110595819D01*
X151662492Y-110834213D01*
X151688698Y-110965962D01*
X151725900Y-111152988D01*
X151725900Y-111478012D01*
X151715827Y-111528653D01*
X151662492Y-111796787D01*
X151636175Y-111860321D01*
X151538112Y-112097067D01*
X151538111Y-112097068D01*
X151357539Y-112367314D01*
X151305764Y-112419089D01*
X151299551Y-112426660D01*
X151294931Y-112435304D01*
X151292086Y-112444684D01*
X151291125Y-112454438D01*
X151292086Y-112464192D01*
X151294931Y-112473572D01*
X151299551Y-112482216D01*
X151305769Y-112489793D01*
X151313346Y-112496011D01*
X151321990Y-112500631D01*
X151331370Y-112503476D01*
X151341124Y-112504437D01*
X151350878Y-112503476D01*
X151360258Y-112500631D01*
X151368895Y-112496015D01*
X151412745Y-112466715D01*
X151465934Y-112444684D01*
X151494641Y-112432793D01*
X151581578Y-112415500D01*
X151670222Y-112415500D01*
X151757159Y-112432793D01*
X151785866Y-112444684D01*
X151839055Y-112466715D01*
X151912758Y-112515962D01*
X151975438Y-112578642D01*
X152024685Y-112652345D01*
X152044556Y-112700318D01*
X152058607Y-112734241D01*
X152075900Y-112821178D01*
X152075900Y-112909822D01*
X152058607Y-112996759D01*
X152044556Y-113030682D01*
X152024685Y-113078655D01*
X151975438Y-113152358D01*
X151912758Y-113215038D01*
X151839055Y-113264285D01*
X151791082Y-113284156D01*
X151757159Y-113298207D01*
X151670222Y-113315500D01*
X151581578Y-113315500D01*
X151494641Y-113298207D01*
X151460718Y-113284156D01*
X151412745Y-113264285D01*
X151339042Y-113215038D01*
X151276362Y-113152358D01*
X151227115Y-113078655D01*
X151207244Y-113030682D01*
X151193193Y-112996759D01*
X151175900Y-112909822D01*
X151175900Y-112821178D01*
X151193193Y-112734241D01*
X151207244Y-112700318D01*
X151227115Y-112652345D01*
X151256415Y-112608495D01*
X151261031Y-112599858D01*
X151263876Y-112590478D01*
X151264837Y-112580724D01*
X151263876Y-112570970D01*
X151261031Y-112561590D01*
X151256411Y-112552946D01*
X151250193Y-112545369D01*
X151242616Y-112539151D01*
X151233972Y-112534531D01*
X151224592Y-112531686D01*
X151214838Y-112530725D01*
X151205084Y-112531686D01*
X151195704Y-112534531D01*
X151187060Y-112539151D01*
X151179489Y-112545364D01*
X151127714Y-112597139D01*
X151110708Y-112608502D01*
X150857467Y-112777712D01*
X150681567Y-112850572D01*
X150557187Y-112902092D01*
X150518330Y-112909821D01*
X150238412Y-112965500D01*
X149913388Y-112965500D01*
X149633470Y-112909821D01*
X149594613Y-112902092D01*
X149470233Y-112850572D01*
X149294333Y-112777712D01*
X149041092Y-112608502D01*
X149024086Y-112597139D01*
X148972311Y-112545364D01*
X148964740Y-112539151D01*
X148956096Y-112534531D01*
X148946716Y-112531686D01*
X148936962Y-112530725D01*
X148927208Y-112531686D01*
X148917828Y-112534531D01*
X148909184Y-112539151D01*
X148901607Y-112545369D01*
X148895389Y-112552946D01*
X148890769Y-112561590D01*
X148887924Y-112570970D01*
X148886963Y-112580724D01*
X148887924Y-112590478D01*
X148890769Y-112599858D01*
X148895385Y-112608495D01*
X148924685Y-112652345D01*
X148944556Y-112700318D01*
X148958607Y-112734241D01*
X148975900Y-112821178D01*
X148975900Y-112909822D01*
X148958607Y-112996759D01*
X148944556Y-113030682D01*
X148924685Y-113078655D01*
X148875438Y-113152358D01*
X148812758Y-113215038D01*
X148739055Y-113264285D01*
X148691082Y-113284156D01*
X148657159Y-113298207D01*
X148570222Y-113315500D01*
X148481578Y-113315500D01*
X148394641Y-113298207D01*
X148360718Y-113284156D01*
X148312745Y-113264285D01*
X148239042Y-113215038D01*
X148176362Y-113152358D01*
X148127115Y-113078655D01*
X148107244Y-113030682D01*
X148093193Y-112996759D01*
X148075900Y-112909822D01*
X148075900Y-112821178D01*
X148093193Y-112734241D01*
X148107244Y-112700318D01*
X148127115Y-112652345D01*
X148176362Y-112578642D01*
X148239042Y-112515962D01*
X148312745Y-112466715D01*
X148365934Y-112444684D01*
X148394641Y-112432793D01*
X148481578Y-112415500D01*
X148570222Y-112415500D01*
X148657159Y-112432793D01*
X148685866Y-112444684D01*
X148739055Y-112466715D01*
X148782905Y-112496015D01*
X148791542Y-112500631D01*
X148800922Y-112503476D01*
X148810676Y-112504437D01*
X148820430Y-112503476D01*
X148829810Y-112500631D01*
X148838454Y-112496011D01*
X148846031Y-112489793D01*
X148852249Y-112482216D01*
X148856869Y-112473572D01*
X148859714Y-112464192D01*
X148860675Y-112454438D01*
X148859714Y-112444684D01*
X148856869Y-112435304D01*
X148852249Y-112426660D01*
X148846036Y-112419089D01*
X148794261Y-112367314D01*
X148613689Y-112097068D01*
X148613688Y-112097067D01*
X148515625Y-111860321D01*
X148489308Y-111796787D01*
X148435973Y-111528653D01*
X148425900Y-111478012D01*
X148425900Y-111152988D01*
X148463102Y-110965962D01*
X148489308Y-110834213D01*
X148588054Y-110595819D01*
X148613688Y-110533933D01*
X148794260Y-110263688D01*
X148794261Y-110263686D01*
X148846036Y-110211911D01*
X148852249Y-110204340D01*
X148856869Y-110195696D01*
X148859714Y-110186316D01*
X148860675Y-110176562D01*
X148859714Y-110166808D01*
X148856869Y-110157428D01*
X148852249Y-110148784D01*
X148846031Y-110141207D01*
X148838454Y-110134989D01*
X148829810Y-110130369D01*
X148820430Y-110127524D01*
X148810676Y-110126563D01*
X148800922Y-110127524D01*
X148791542Y-110130369D01*
X148782905Y-110134985D01*
X148739055Y-110164285D01*
X148701918Y-110179667D01*
X148657159Y-110198207D01*
X148570222Y-110215500D01*
X148481578Y-110215500D01*
X148394641Y-110198207D01*
X148349882Y-110179667D01*
X148312745Y-110164285D01*
X148239042Y-110115038D01*
X148176362Y-110052358D01*
X148127115Y-109978655D01*
X148107244Y-109930682D01*
X148093193Y-109896759D01*
X148075900Y-109809822D01*
X148075900Y-109721178D01*
X148093193Y-109634241D01*
X148107244Y-109600318D01*
X148127115Y-109552345D01*
X148176362Y-109478642D01*
X148239042Y-109415962D01*
X148312745Y-109366715D01*
X148360718Y-109346844D01*
X148394641Y-109332793D01*
X148481578Y-109315500D01*
X148570222Y-109315500D01*
X148657159Y-109332793D01*
G37*
G36*
X113605159Y-109332793D02*
G01*
X113639082Y-109346844D01*
X113687055Y-109366715D01*
X113760758Y-109415962D01*
X113823438Y-109478642D01*
X113872685Y-109552345D01*
X113892556Y-109600318D01*
X113906607Y-109634241D01*
X113923900Y-109721178D01*
X113923900Y-109809822D01*
X113906607Y-109896759D01*
X113892556Y-109930682D01*
X113872685Y-109978655D01*
X113843385Y-110022505D01*
X113838769Y-110031142D01*
X113835924Y-110040522D01*
X113834963Y-110050276D01*
X113835924Y-110060030D01*
X113838769Y-110069410D01*
X113843389Y-110078054D01*
X113849607Y-110085631D01*
X113857184Y-110091849D01*
X113865828Y-110096469D01*
X113875208Y-110099314D01*
X113884962Y-110100275D01*
X113894716Y-110099314D01*
X113904096Y-110096469D01*
X113912740Y-110091849D01*
X113920311Y-110085636D01*
X113972086Y-110033861D01*
X114242332Y-109853289D01*
X114242333Y-109853288D01*
X114418233Y-109780428D01*
X114542613Y-109728908D01*
X114702001Y-109697204D01*
X114861388Y-109665500D01*
X115186412Y-109665500D01*
X115345799Y-109697204D01*
X115505187Y-109728908D01*
X115629567Y-109780428D01*
X115805467Y-109853288D01*
X115805468Y-109853289D01*
X116075714Y-110033861D01*
X116127489Y-110085636D01*
X116135060Y-110091849D01*
X116143704Y-110096469D01*
X116153084Y-110099314D01*
X116162838Y-110100275D01*
X116172592Y-110099314D01*
X116181972Y-110096469D01*
X116190616Y-110091849D01*
X116198193Y-110085631D01*
X116204411Y-110078054D01*
X116209031Y-110069410D01*
X116211876Y-110060030D01*
X116212837Y-110050276D01*
X116211876Y-110040522D01*
X116209031Y-110031142D01*
X116204415Y-110022505D01*
X116175115Y-109978655D01*
X116155244Y-109930682D01*
X116141193Y-109896759D01*
X116123900Y-109809822D01*
X116123900Y-109721178D01*
X116141193Y-109634241D01*
X116155244Y-109600318D01*
X116175115Y-109552345D01*
X116224362Y-109478642D01*
X116287042Y-109415962D01*
X116360745Y-109366715D01*
X116408718Y-109346844D01*
X116442641Y-109332793D01*
X116529578Y-109315500D01*
X116618222Y-109315500D01*
X116705159Y-109332793D01*
X116739082Y-109346844D01*
X116787055Y-109366715D01*
X116860758Y-109415962D01*
X116923438Y-109478642D01*
X116972685Y-109552345D01*
X116992556Y-109600318D01*
X117006607Y-109634241D01*
X117023900Y-109721178D01*
X117023900Y-109809822D01*
X117006607Y-109896759D01*
X116992556Y-109930682D01*
X116972685Y-109978655D01*
X116923438Y-110052358D01*
X116860758Y-110115038D01*
X116787055Y-110164285D01*
X116749918Y-110179667D01*
X116705159Y-110198207D01*
X116618222Y-110215500D01*
X116529578Y-110215500D01*
X116442641Y-110198207D01*
X116397882Y-110179667D01*
X116360745Y-110164285D01*
X116316895Y-110134985D01*
X116308258Y-110130369D01*
X116298878Y-110127524D01*
X116289124Y-110126563D01*
X116279370Y-110127524D01*
X116269990Y-110130369D01*
X116261346Y-110134989D01*
X116253769Y-110141207D01*
X116247551Y-110148784D01*
X116242931Y-110157428D01*
X116240086Y-110166808D01*
X116239125Y-110176562D01*
X116240086Y-110186316D01*
X116242931Y-110195696D01*
X116247551Y-110204340D01*
X116253764Y-110211911D01*
X116305539Y-110263686D01*
X116305540Y-110263688D01*
X116486112Y-110533933D01*
X116511746Y-110595819D01*
X116610492Y-110834213D01*
X116636698Y-110965962D01*
X116673900Y-111152988D01*
X116673900Y-111478012D01*
X116663827Y-111528653D01*
X116610492Y-111796787D01*
X116584175Y-111860321D01*
X116486112Y-112097067D01*
X116486111Y-112097068D01*
X116305539Y-112367314D01*
X116253764Y-112419089D01*
X116247551Y-112426660D01*
X116242931Y-112435304D01*
X116240086Y-112444684D01*
X116239125Y-112454438D01*
X116240086Y-112464192D01*
X116242931Y-112473572D01*
X116247551Y-112482216D01*
X116253769Y-112489793D01*
X116261346Y-112496011D01*
X116269990Y-112500631D01*
X116279370Y-112503476D01*
X116289124Y-112504437D01*
X116298878Y-112503476D01*
X116308258Y-112500631D01*
X116316895Y-112496015D01*
X116360745Y-112466715D01*
X116413934Y-112444684D01*
X116442641Y-112432793D01*
X116529578Y-112415500D01*
X116618222Y-112415500D01*
X116705159Y-112432793D01*
X116733866Y-112444684D01*
X116787055Y-112466715D01*
X116860758Y-112515962D01*
X116923438Y-112578642D01*
X116972685Y-112652345D01*
X116992556Y-112700318D01*
X117006607Y-112734241D01*
X117023900Y-112821178D01*
X117023900Y-112909822D01*
X117006607Y-112996759D01*
X116992556Y-113030682D01*
X116972685Y-113078655D01*
X116923438Y-113152358D01*
X116860758Y-113215038D01*
X116787055Y-113264285D01*
X116739082Y-113284156D01*
X116705159Y-113298207D01*
X116618222Y-113315500D01*
X116529578Y-113315500D01*
X116442641Y-113298207D01*
X116408718Y-113284156D01*
X116360745Y-113264285D01*
X116287042Y-113215038D01*
X116224362Y-113152358D01*
X116175115Y-113078655D01*
X116155244Y-113030682D01*
X116141193Y-112996759D01*
X116123900Y-112909822D01*
X116123900Y-112821178D01*
X116141193Y-112734241D01*
X116155244Y-112700318D01*
X116175115Y-112652345D01*
X116204415Y-112608495D01*
X116209031Y-112599858D01*
X116211876Y-112590478D01*
X116212837Y-112580724D01*
X116211876Y-112570970D01*
X116209031Y-112561590D01*
X116204411Y-112552946D01*
X116198193Y-112545369D01*
X116190616Y-112539151D01*
X116181972Y-112534531D01*
X116172592Y-112531686D01*
X116162838Y-112530725D01*
X116153084Y-112531686D01*
X116143704Y-112534531D01*
X116135060Y-112539151D01*
X116127489Y-112545364D01*
X116075714Y-112597139D01*
X116058708Y-112608502D01*
X115805467Y-112777712D01*
X115629567Y-112850572D01*
X115505187Y-112902092D01*
X115466330Y-112909821D01*
X115186412Y-112965500D01*
X114861388Y-112965500D01*
X114581470Y-112909821D01*
X114542613Y-112902092D01*
X114418233Y-112850572D01*
X114242333Y-112777712D01*
X113989092Y-112608502D01*
X113972086Y-112597139D01*
X113920311Y-112545364D01*
X113912740Y-112539151D01*
X113904096Y-112534531D01*
X113894716Y-112531686D01*
X113884962Y-112530725D01*
X113875208Y-112531686D01*
X113865828Y-112534531D01*
X113857184Y-112539151D01*
X113849607Y-112545369D01*
X113843389Y-112552946D01*
X113838769Y-112561590D01*
X113835924Y-112570970D01*
X113834963Y-112580724D01*
X113835924Y-112590478D01*
X113838769Y-112599858D01*
X113843385Y-112608495D01*
X113872685Y-112652345D01*
X113892556Y-112700318D01*
X113906607Y-112734241D01*
X113923900Y-112821178D01*
X113923900Y-112909822D01*
X113906607Y-112996759D01*
X113892556Y-113030682D01*
X113872685Y-113078655D01*
X113823438Y-113152358D01*
X113760758Y-113215038D01*
X113687055Y-113264285D01*
X113639082Y-113284156D01*
X113605159Y-113298207D01*
X113518222Y-113315500D01*
X113429578Y-113315500D01*
X113342641Y-113298207D01*
X113308718Y-113284156D01*
X113260745Y-113264285D01*
X113187042Y-113215038D01*
X113124362Y-113152358D01*
X113075115Y-113078655D01*
X113055244Y-113030682D01*
X113041193Y-112996759D01*
X113023900Y-112909822D01*
X113023900Y-112821178D01*
X113041193Y-112734241D01*
X113055244Y-112700318D01*
X113075115Y-112652345D01*
X113124362Y-112578642D01*
X113187042Y-112515962D01*
X113260745Y-112466715D01*
X113313934Y-112444684D01*
X113342641Y-112432793D01*
X113429578Y-112415500D01*
X113518222Y-112415500D01*
X113605159Y-112432793D01*
X113633866Y-112444684D01*
X113687055Y-112466715D01*
X113730905Y-112496015D01*
X113739542Y-112500631D01*
X113748922Y-112503476D01*
X113758676Y-112504437D01*
X113768430Y-112503476D01*
X113777810Y-112500631D01*
X113786454Y-112496011D01*
X113794031Y-112489793D01*
X113800249Y-112482216D01*
X113804869Y-112473572D01*
X113807714Y-112464192D01*
X113808675Y-112454438D01*
X113807714Y-112444684D01*
X113804869Y-112435304D01*
X113800249Y-112426660D01*
X113794036Y-112419089D01*
X113742261Y-112367314D01*
X113561689Y-112097068D01*
X113561688Y-112097067D01*
X113463625Y-111860321D01*
X113437308Y-111796787D01*
X113383973Y-111528653D01*
X113373900Y-111478012D01*
X113373900Y-111152988D01*
X113411102Y-110965962D01*
X113437308Y-110834213D01*
X113536054Y-110595819D01*
X113561688Y-110533933D01*
X113742260Y-110263688D01*
X113742261Y-110263686D01*
X113794036Y-110211911D01*
X113800249Y-110204340D01*
X113804869Y-110195696D01*
X113807714Y-110186316D01*
X113808675Y-110176562D01*
X113807714Y-110166808D01*
X113804869Y-110157428D01*
X113800249Y-110148784D01*
X113794031Y-110141207D01*
X113786454Y-110134989D01*
X113777810Y-110130369D01*
X113768430Y-110127524D01*
X113758676Y-110126563D01*
X113748922Y-110127524D01*
X113739542Y-110130369D01*
X113730905Y-110134985D01*
X113687055Y-110164285D01*
X113649918Y-110179667D01*
X113605159Y-110198207D01*
X113518222Y-110215500D01*
X113429578Y-110215500D01*
X113342641Y-110198207D01*
X113297882Y-110179667D01*
X113260745Y-110164285D01*
X113187042Y-110115038D01*
X113124362Y-110052358D01*
X113075115Y-109978655D01*
X113055244Y-109930682D01*
X113041193Y-109896759D01*
X113023900Y-109809822D01*
X113023900Y-109721178D01*
X113041193Y-109634241D01*
X113055244Y-109600318D01*
X113075115Y-109552345D01*
X113124362Y-109478642D01*
X113187042Y-109415962D01*
X113260745Y-109366715D01*
X113308718Y-109346844D01*
X113342641Y-109332793D01*
X113429578Y-109315500D01*
X113518222Y-109315500D01*
X113605159Y-109332793D01*
G37*
G36*
X159164381Y-111546422D02*
G01*
X159296141Y-111600999D01*
X159296143Y-111601000D01*
X159298175Y-111602358D01*
X159414722Y-111680232D01*
X159515568Y-111781078D01*
X159594801Y-111899659D01*
X159649378Y-112031419D01*
X159677200Y-112171291D01*
X159677200Y-112313909D01*
X159649378Y-112453781D01*
X159597658Y-112578643D01*
X159594800Y-112585543D01*
X159515567Y-112704123D01*
X159414723Y-112804967D01*
X159296143Y-112884200D01*
X159296142Y-112884201D01*
X159296141Y-112884201D01*
X159164381Y-112938778D01*
X159024509Y-112966600D01*
X158881891Y-112966600D01*
X158742019Y-112938778D01*
X158610259Y-112884201D01*
X158610258Y-112884201D01*
X158610257Y-112884200D01*
X158491677Y-112804967D01*
X158390833Y-112704123D01*
X158311600Y-112585543D01*
X158308742Y-112578643D01*
X158257022Y-112453781D01*
X158229200Y-112313909D01*
X158229200Y-112171291D01*
X158257022Y-112031419D01*
X158311599Y-111899659D01*
X158390832Y-111781078D01*
X158491678Y-111680232D01*
X158608225Y-111602358D01*
X158610257Y-111601000D01*
X158610259Y-111600999D01*
X158742019Y-111546422D01*
X158881891Y-111518600D01*
X159024509Y-111518600D01*
X159164381Y-111546422D01*
G37*
G36*
X106579679Y-111398464D02*
G01*
X106689954Y-111431916D01*
X106791578Y-111486235D01*
X106791579Y-111486236D01*
X106791581Y-111486237D01*
X106880659Y-111559341D01*
X106953763Y-111648419D01*
X106953765Y-111648422D01*
X107008084Y-111750046D01*
X107041536Y-111860321D01*
X107052830Y-111975000D01*
X107041536Y-112089679D01*
X107008084Y-112199954D01*
X106953765Y-112301578D01*
X106953763Y-112301581D01*
X106880659Y-112390659D01*
X106791581Y-112463763D01*
X106791579Y-112463764D01*
X106791578Y-112463765D01*
X106689954Y-112518084D01*
X106579679Y-112551536D01*
X106493737Y-112560000D01*
X105606263Y-112560000D01*
X105520321Y-112551536D01*
X105410046Y-112518084D01*
X105308422Y-112463765D01*
X105308421Y-112463764D01*
X105308419Y-112463763D01*
X105219341Y-112390659D01*
X105146237Y-112301581D01*
X105146235Y-112301578D01*
X105091916Y-112199954D01*
X105058464Y-112089679D01*
X105047170Y-111975000D01*
X105058464Y-111860321D01*
X105091916Y-111750046D01*
X105146235Y-111648422D01*
X105146237Y-111648419D01*
X105219341Y-111559341D01*
X105308419Y-111486237D01*
X105308421Y-111486236D01*
X105308422Y-111486235D01*
X105410046Y-111431916D01*
X105520321Y-111398464D01*
X105606263Y-111390000D01*
X106493737Y-111390000D01*
X106579679Y-111398464D01*
G37*
G36*
X117355159Y-110882793D02*
G01*
X117389082Y-110896844D01*
X117437055Y-110916715D01*
X117510758Y-110965962D01*
X117573438Y-111028642D01*
X117622685Y-111102345D01*
X117642556Y-111150318D01*
X117656607Y-111184241D01*
X117673900Y-111271178D01*
X117673900Y-111359822D01*
X117656607Y-111446759D01*
X117645696Y-111473099D01*
X117622685Y-111528655D01*
X117573438Y-111602358D01*
X117510758Y-111665038D01*
X117437055Y-111714285D01*
X117389082Y-111734156D01*
X117355159Y-111748207D01*
X117268222Y-111765500D01*
X117179578Y-111765500D01*
X117092641Y-111748207D01*
X117058718Y-111734156D01*
X117010745Y-111714285D01*
X116937042Y-111665038D01*
X116874362Y-111602358D01*
X116825115Y-111528655D01*
X116802104Y-111473099D01*
X116791193Y-111446759D01*
X116773900Y-111359822D01*
X116773900Y-111271178D01*
X116791193Y-111184241D01*
X116805244Y-111150318D01*
X116825115Y-111102345D01*
X116874362Y-111028642D01*
X116937042Y-110965962D01*
X117010745Y-110916715D01*
X117058718Y-110896844D01*
X117092641Y-110882793D01*
X117179578Y-110865500D01*
X117268222Y-110865500D01*
X117355159Y-110882793D01*
G37*
G36*
X152407159Y-110882793D02*
G01*
X152441082Y-110896844D01*
X152489055Y-110916715D01*
X152562758Y-110965962D01*
X152625438Y-111028642D01*
X152674685Y-111102345D01*
X152694556Y-111150318D01*
X152708607Y-111184241D01*
X152725900Y-111271178D01*
X152725900Y-111359822D01*
X152708607Y-111446759D01*
X152697696Y-111473099D01*
X152674685Y-111528655D01*
X152625438Y-111602358D01*
X152562758Y-111665038D01*
X152489055Y-111714285D01*
X152441082Y-111734156D01*
X152407159Y-111748207D01*
X152320222Y-111765500D01*
X152231578Y-111765500D01*
X152144641Y-111748207D01*
X152110718Y-111734156D01*
X152062745Y-111714285D01*
X151989042Y-111665038D01*
X151926362Y-111602358D01*
X151877115Y-111528655D01*
X151854104Y-111473099D01*
X151843193Y-111446759D01*
X151825900Y-111359822D01*
X151825900Y-111271178D01*
X151843193Y-111184241D01*
X151857244Y-111150318D01*
X151877115Y-111102345D01*
X151926362Y-111028642D01*
X151989042Y-110965962D01*
X152062745Y-110916715D01*
X152110718Y-110896844D01*
X152144641Y-110882793D01*
X152231578Y-110865500D01*
X152320222Y-110865500D01*
X152407159Y-110882793D01*
G37*
G36*
X148007159Y-110882793D02*
G01*
X148041082Y-110896844D01*
X148089055Y-110916715D01*
X148162758Y-110965962D01*
X148225438Y-111028642D01*
X148274685Y-111102345D01*
X148294556Y-111150318D01*
X148308607Y-111184241D01*
X148325900Y-111271178D01*
X148325900Y-111359822D01*
X148308607Y-111446759D01*
X148297696Y-111473099D01*
X148274685Y-111528655D01*
X148225438Y-111602358D01*
X148162758Y-111665038D01*
X148089055Y-111714285D01*
X148041082Y-111734156D01*
X148007159Y-111748207D01*
X147920222Y-111765500D01*
X147831578Y-111765500D01*
X147744641Y-111748207D01*
X147710718Y-111734156D01*
X147662745Y-111714285D01*
X147589042Y-111665038D01*
X147526362Y-111602358D01*
X147477115Y-111528655D01*
X147454104Y-111473099D01*
X147443193Y-111446759D01*
X147425900Y-111359822D01*
X147425900Y-111271178D01*
X147443193Y-111184241D01*
X147457244Y-111150318D01*
X147477115Y-111102345D01*
X147526362Y-111028642D01*
X147589042Y-110965962D01*
X147662745Y-110916715D01*
X147710718Y-110896844D01*
X147744641Y-110882793D01*
X147831578Y-110865500D01*
X147920222Y-110865500D01*
X148007159Y-110882793D01*
G37*
G36*
X112955159Y-110882793D02*
G01*
X112989082Y-110896844D01*
X113037055Y-110916715D01*
X113110758Y-110965962D01*
X113173438Y-111028642D01*
X113222685Y-111102345D01*
X113242556Y-111150318D01*
X113256607Y-111184241D01*
X113273900Y-111271178D01*
X113273900Y-111359822D01*
X113256607Y-111446759D01*
X113245696Y-111473099D01*
X113222685Y-111528655D01*
X113173438Y-111602358D01*
X113110758Y-111665038D01*
X113037055Y-111714285D01*
X112989082Y-111734156D01*
X112955159Y-111748207D01*
X112868222Y-111765500D01*
X112779578Y-111765500D01*
X112692641Y-111748207D01*
X112658718Y-111734156D01*
X112610745Y-111714285D01*
X112537042Y-111665038D01*
X112474362Y-111602358D01*
X112425115Y-111528655D01*
X112402104Y-111473099D01*
X112391193Y-111446759D01*
X112373900Y-111359822D01*
X112373900Y-111271178D01*
X112391193Y-111184241D01*
X112405244Y-111150318D01*
X112425115Y-111102345D01*
X112474362Y-111028642D01*
X112537042Y-110965962D01*
X112610745Y-110916715D01*
X112658718Y-110896844D01*
X112692641Y-110882793D01*
X112779578Y-110865500D01*
X112868222Y-110865500D01*
X112955159Y-110882793D01*
G37*
G36*
X108904181Y-110126900D02*
G01*
X109031573Y-110179667D01*
X109031574Y-110179668D01*
X109146224Y-110256274D01*
X109243726Y-110353776D01*
X109294913Y-110430383D01*
X109320333Y-110468427D01*
X109373100Y-110595819D01*
X109400000Y-110731055D01*
X109400000Y-110868945D01*
X109373100Y-111004181D01*
X109320333Y-111131573D01*
X109320332Y-111131574D01*
X109243726Y-111246224D01*
X109146224Y-111343726D01*
X109122134Y-111359822D01*
X109031573Y-111420333D01*
X108904181Y-111473100D01*
X108768945Y-111500000D01*
X108631055Y-111500000D01*
X108495819Y-111473100D01*
X108368427Y-111420333D01*
X108277866Y-111359822D01*
X108253776Y-111343726D01*
X108156274Y-111246224D01*
X108079668Y-111131574D01*
X108079667Y-111131573D01*
X108026900Y-111004181D01*
X108000000Y-110868945D01*
X108000000Y-110731055D01*
X108026900Y-110595819D01*
X108079667Y-110468427D01*
X108105087Y-110430383D01*
X108156274Y-110353776D01*
X108253776Y-110256274D01*
X108368426Y-110179668D01*
X108368427Y-110179667D01*
X108495819Y-110126900D01*
X108631055Y-110100000D01*
X108768945Y-110100000D01*
X108904181Y-110126900D01*
G37*
G36*
X150207159Y-108682793D02*
G01*
X150241082Y-108696844D01*
X150289055Y-108716715D01*
X150362758Y-108765962D01*
X150425438Y-108828642D01*
X150474685Y-108902345D01*
X150494556Y-108950318D01*
X150508607Y-108984241D01*
X150525900Y-109071178D01*
X150525900Y-109159822D01*
X150508607Y-109246759D01*
X150494556Y-109280682D01*
X150474685Y-109328655D01*
X150425438Y-109402358D01*
X150362758Y-109465038D01*
X150289055Y-109514285D01*
X150241082Y-109534156D01*
X150207159Y-109548207D01*
X150120222Y-109565500D01*
X150031578Y-109565500D01*
X149944641Y-109548207D01*
X149910718Y-109534156D01*
X149862745Y-109514285D01*
X149789042Y-109465038D01*
X149726362Y-109402358D01*
X149677115Y-109328655D01*
X149657244Y-109280682D01*
X149643193Y-109246759D01*
X149625900Y-109159822D01*
X149625900Y-109071178D01*
X149643193Y-108984241D01*
X149657244Y-108950318D01*
X149677115Y-108902345D01*
X149726362Y-108828642D01*
X149789042Y-108765962D01*
X149862745Y-108716715D01*
X149910718Y-108696844D01*
X149944641Y-108682793D01*
X150031578Y-108665500D01*
X150120222Y-108665500D01*
X150207159Y-108682793D01*
G37*
G36*
X115155159Y-108682793D02*
G01*
X115189082Y-108696844D01*
X115237055Y-108716715D01*
X115310758Y-108765962D01*
X115373438Y-108828642D01*
X115422685Y-108902345D01*
X115442556Y-108950318D01*
X115456607Y-108984241D01*
X115473900Y-109071178D01*
X115473900Y-109159822D01*
X115456607Y-109246759D01*
X115442556Y-109280682D01*
X115422685Y-109328655D01*
X115373438Y-109402358D01*
X115310758Y-109465038D01*
X115237055Y-109514285D01*
X115189082Y-109534156D01*
X115155159Y-109548207D01*
X115068222Y-109565500D01*
X114979578Y-109565500D01*
X114892641Y-109548207D01*
X114858718Y-109534156D01*
X114810745Y-109514285D01*
X114737042Y-109465038D01*
X114674362Y-109402358D01*
X114625115Y-109328655D01*
X114605244Y-109280682D01*
X114591193Y-109246759D01*
X114573900Y-109159822D01*
X114573900Y-109071178D01*
X114591193Y-108984241D01*
X114605244Y-108950318D01*
X114625115Y-108902345D01*
X114674362Y-108828642D01*
X114737042Y-108765962D01*
X114810745Y-108716715D01*
X114858718Y-108696844D01*
X114892641Y-108682793D01*
X114979578Y-108665500D01*
X115068222Y-108665500D01*
X115155159Y-108682793D01*
G37*
G36*
X108904181Y-105276900D02*
G01*
X109031573Y-105329667D01*
X109031574Y-105329668D01*
X109146224Y-105406274D01*
X109243726Y-105503776D01*
X109294913Y-105580383D01*
X109320333Y-105618427D01*
X109373100Y-105745819D01*
X109400000Y-105881055D01*
X109400000Y-106018945D01*
X109373100Y-106154181D01*
X109320333Y-106281573D01*
X109320332Y-106281574D01*
X109243726Y-106396224D01*
X109146224Y-106493726D01*
X109069617Y-106544913D01*
X109031573Y-106570333D01*
X108904181Y-106623100D01*
X108768945Y-106650000D01*
X108631055Y-106650000D01*
X108495819Y-106623100D01*
X108368427Y-106570333D01*
X108330383Y-106544913D01*
X108253776Y-106493726D01*
X108156274Y-106396224D01*
X108079668Y-106281574D01*
X108079667Y-106281573D01*
X108026900Y-106154181D01*
X108000000Y-106018945D01*
X108000000Y-105881055D01*
X108026900Y-105745819D01*
X108079667Y-105618427D01*
X108105087Y-105580383D01*
X108156274Y-105503776D01*
X108253776Y-105406274D01*
X108368426Y-105329668D01*
X108368427Y-105329667D01*
X108495819Y-105276900D01*
X108631055Y-105250000D01*
X108768945Y-105250000D01*
X108904181Y-105276900D01*
G37*
G36*
X106579679Y-104198464D02*
G01*
X106689954Y-104231916D01*
X106791578Y-104286235D01*
X106791579Y-104286236D01*
X106791581Y-104286237D01*
X106880659Y-104359341D01*
X106953763Y-104448419D01*
X106953765Y-104448422D01*
X107008084Y-104550046D01*
X107041536Y-104660321D01*
X107052830Y-104775000D01*
X107041536Y-104889679D01*
X107008084Y-104999954D01*
X106953765Y-105101578D01*
X106953763Y-105101581D01*
X106880659Y-105190659D01*
X106791581Y-105263763D01*
X106791579Y-105263764D01*
X106791578Y-105263765D01*
X106689954Y-105318084D01*
X106579679Y-105351536D01*
X106493737Y-105360000D01*
X105606263Y-105360000D01*
X105520321Y-105351536D01*
X105410046Y-105318084D01*
X105308422Y-105263765D01*
X105308421Y-105263764D01*
X105308419Y-105263763D01*
X105219341Y-105190659D01*
X105146237Y-105101581D01*
X105146235Y-105101578D01*
X105091916Y-104999954D01*
X105058464Y-104889679D01*
X105047170Y-104775000D01*
X105058464Y-104660321D01*
X105091916Y-104550046D01*
X105146235Y-104448422D01*
X105146237Y-104448419D01*
X105219341Y-104359341D01*
X105308419Y-104286237D01*
X105308421Y-104286236D01*
X105308422Y-104286235D01*
X105410046Y-104231916D01*
X105520321Y-104198464D01*
X105606263Y-104190000D01*
X106493737Y-104190000D01*
X106579679Y-104198464D01*
G37*
G36*
X110199935Y-98539390D02*
G01*
X110397963Y-98578780D01*
X110616505Y-98669304D01*
X110771038Y-98733313D01*
X110771039Y-98733314D01*
X111106799Y-98957661D01*
X111392339Y-99243201D01*
X111392340Y-99243203D01*
X111616687Y-99578962D01*
X111680696Y-99733495D01*
X111771220Y-99952037D01*
X111850000Y-100348093D01*
X111850000Y-100751907D01*
X111771220Y-101147963D01*
X111680696Y-101366505D01*
X111616687Y-101521038D01*
X111616686Y-101521039D01*
X111392339Y-101856799D01*
X111106799Y-102142339D01*
X110937779Y-102255274D01*
X110771038Y-102366687D01*
X110616505Y-102430696D01*
X110397963Y-102521220D01*
X110199935Y-102560610D01*
X110001909Y-102600000D01*
X109598091Y-102600000D01*
X109400065Y-102560610D01*
X109202037Y-102521220D01*
X108983495Y-102430696D01*
X108828962Y-102366687D01*
X108662221Y-102255274D01*
X108493201Y-102142339D01*
X108207661Y-101856799D01*
X107983314Y-101521039D01*
X107983313Y-101521038D01*
X107919304Y-101366505D01*
X107828780Y-101147963D01*
X107750000Y-100751907D01*
X107750000Y-100348093D01*
X107828780Y-99952037D01*
X107919304Y-99733495D01*
X107983313Y-99578962D01*
X108207660Y-99243203D01*
X108207661Y-99243201D01*
X108493201Y-98957661D01*
X108828961Y-98733314D01*
X108828962Y-98733313D01*
X108983495Y-98669304D01*
X109202037Y-98578780D01*
X109400065Y-98539390D01*
X109598091Y-98500000D01*
X110001909Y-98500000D01*
X110199935Y-98539390D01*
G37*
G36*
X115577103Y-96286507D02*
G01*
X115577106Y-96286508D01*
X115577105Y-96286508D01*
X115749994Y-96358121D01*
X115905590Y-96462087D01*
X116037913Y-96594410D01*
X116037914Y-96594412D01*
X116141880Y-96750008D01*
X116213493Y-96922897D01*
X116250000Y-97106432D01*
X116250000Y-97293568D01*
X116213493Y-97477103D01*
X116213492Y-97477105D01*
X116141879Y-97649994D01*
X116037913Y-97805590D01*
X115905590Y-97937913D01*
X115749994Y-98041879D01*
X115749993Y-98041880D01*
X115749992Y-98041880D01*
X115577103Y-98113493D01*
X115393568Y-98150000D01*
X115206432Y-98150000D01*
X115022897Y-98113493D01*
X114850008Y-98041880D01*
X114850007Y-98041880D01*
X114850006Y-98041879D01*
X114694410Y-97937913D01*
X114562087Y-97805590D01*
X114458121Y-97649994D01*
X114386508Y-97477105D01*
X114386507Y-97477103D01*
X114350000Y-97293568D01*
X114350000Y-97106432D01*
X114386507Y-96922897D01*
X114458120Y-96750008D01*
X114562086Y-96594412D01*
X114562087Y-96594410D01*
X114694410Y-96462087D01*
X114850006Y-96358121D01*
X115022895Y-96286508D01*
X115022894Y-96286508D01*
X115022897Y-96286507D01*
X115206432Y-96250000D01*
X115393568Y-96250000D01*
X115577103Y-96286507D01*
G37*
G36*
X113077103Y-96286507D02*
G01*
X113077106Y-96286508D01*
X113077105Y-96286508D01*
X113249994Y-96358121D01*
X113405590Y-96462087D01*
X113537913Y-96594410D01*
X113537914Y-96594412D01*
X113641880Y-96750008D01*
X113713493Y-96922897D01*
X113750000Y-97106432D01*
X113750000Y-97293568D01*
X113713493Y-97477103D01*
X113713492Y-97477105D01*
X113641879Y-97649994D01*
X113537913Y-97805590D01*
X113405590Y-97937913D01*
X113249994Y-98041879D01*
X113249993Y-98041880D01*
X113249992Y-98041880D01*
X113077103Y-98113493D01*
X112893568Y-98150000D01*
X112706432Y-98150000D01*
X112522897Y-98113493D01*
X112350008Y-98041880D01*
X112350007Y-98041880D01*
X112350006Y-98041879D01*
X112194410Y-97937913D01*
X112062087Y-97805590D01*
X111958121Y-97649994D01*
X111886508Y-97477105D01*
X111886507Y-97477103D01*
X111850000Y-97293568D01*
X111850000Y-97106432D01*
X111886507Y-96922897D01*
X111958120Y-96750008D01*
X112062086Y-96594412D01*
X112062087Y-96594410D01*
X112194410Y-96462087D01*
X112350006Y-96358121D01*
X112522895Y-96286508D01*
X112522894Y-96286508D01*
X112522897Y-96286507D01*
X112706432Y-96250000D01*
X112893568Y-96250000D01*
X113077103Y-96286507D01*
G37*
G36*
X109399935Y-91789390D02*
G01*
X109597963Y-91828780D01*
X109816505Y-91919304D01*
X109971038Y-91983313D01*
X109971039Y-91983314D01*
X110306799Y-92207661D01*
X110592339Y-92493201D01*
X110592340Y-92493203D01*
X110816687Y-92828962D01*
X110880696Y-92983495D01*
X110971220Y-93202037D01*
X111050000Y-93598093D01*
X111050000Y-94001907D01*
X110971220Y-94397963D01*
X110880696Y-94616505D01*
X110816687Y-94771038D01*
X110816686Y-94771039D01*
X110592339Y-95106799D01*
X110306799Y-95392339D01*
X110137779Y-95505274D01*
X109971038Y-95616687D01*
X109816505Y-95680696D01*
X109597963Y-95771220D01*
X109399935Y-95810610D01*
X109201909Y-95850000D01*
X108798091Y-95850000D01*
X108600065Y-95810610D01*
X108402037Y-95771220D01*
X108183495Y-95680696D01*
X108028962Y-95616687D01*
X107862221Y-95505274D01*
X107693201Y-95392339D01*
X107407661Y-95106799D01*
X107183314Y-94771039D01*
X107183313Y-94771038D01*
X107119304Y-94616505D01*
X107028780Y-94397963D01*
X106950000Y-94001907D01*
X106950000Y-93598093D01*
X107028780Y-93202037D01*
X107119304Y-92983495D01*
X107183313Y-92828962D01*
X107407660Y-92493203D01*
X107407661Y-92493201D01*
X107693201Y-92207661D01*
X108028961Y-91983314D01*
X108028962Y-91983313D01*
X108183495Y-91919304D01*
X108402037Y-91828780D01*
X108600065Y-91789390D01*
X108798091Y-91750000D01*
X109201909Y-91750000D01*
X109399935Y-91789390D01*
G37*
G36*
X113077103Y-89486507D02*
G01*
X113077106Y-89486508D01*
X113077105Y-89486508D01*
X113249994Y-89558121D01*
X113405590Y-89662087D01*
X113537913Y-89794410D01*
X113537914Y-89794412D01*
X113641880Y-89950008D01*
X113713493Y-90122897D01*
X113750000Y-90306432D01*
X113750000Y-90493568D01*
X113713493Y-90677103D01*
X113713492Y-90677105D01*
X113641879Y-90849994D01*
X113537913Y-91005590D01*
X113405590Y-91137913D01*
X113249994Y-91241879D01*
X113249993Y-91241880D01*
X113249992Y-91241880D01*
X113077103Y-91313493D01*
X112893568Y-91350000D01*
X112706432Y-91350000D01*
X112522897Y-91313493D01*
X112350008Y-91241880D01*
X112350007Y-91241880D01*
X112350006Y-91241879D01*
X112194410Y-91137913D01*
X112062087Y-91005590D01*
X111958121Y-90849994D01*
X111886508Y-90677105D01*
X111886507Y-90677103D01*
X111850000Y-90493568D01*
X111850000Y-90306432D01*
X111886507Y-90122897D01*
X111958120Y-89950008D01*
X112062086Y-89794412D01*
X112062087Y-89794410D01*
X112194410Y-89662087D01*
X112350006Y-89558121D01*
X112522895Y-89486508D01*
X112522894Y-89486508D01*
X112522897Y-89486507D01*
X112706432Y-89450000D01*
X112893568Y-89450000D01*
X113077103Y-89486507D01*
G37*
G36*
X115577103Y-89486507D02*
G01*
X115577106Y-89486508D01*
X115577105Y-89486508D01*
X115749994Y-89558121D01*
X115905590Y-89662087D01*
X116037913Y-89794410D01*
X116037914Y-89794412D01*
X116141880Y-89950008D01*
X116213493Y-90122897D01*
X116250000Y-90306432D01*
X116250000Y-90493568D01*
X116213493Y-90677103D01*
X116213492Y-90677105D01*
X116141879Y-90849994D01*
X116037913Y-91005590D01*
X115905590Y-91137913D01*
X115749994Y-91241879D01*
X115749993Y-91241880D01*
X115749992Y-91241880D01*
X115577103Y-91313493D01*
X115393568Y-91350000D01*
X115206432Y-91350000D01*
X115022897Y-91313493D01*
X114850008Y-91241880D01*
X114850007Y-91241880D01*
X114850006Y-91241879D01*
X114694410Y-91137913D01*
X114562087Y-91005590D01*
X114458121Y-90849994D01*
X114386508Y-90677105D01*
X114386507Y-90677103D01*
X114350000Y-90493568D01*
X114350000Y-90306432D01*
X114386507Y-90122897D01*
X114458120Y-89950008D01*
X114562086Y-89794412D01*
X114562087Y-89794410D01*
X114694410Y-89662087D01*
X114850006Y-89558121D01*
X115022895Y-89486508D01*
X115022894Y-89486508D01*
X115022897Y-89486507D01*
X115206432Y-89450000D01*
X115393568Y-89450000D01*
X115577103Y-89486507D01*
G37*
G36*
X110199935Y-85039390D02*
G01*
X110397963Y-85078780D01*
X110616505Y-85169304D01*
X110771038Y-85233313D01*
X110771039Y-85233314D01*
X111106799Y-85457661D01*
X111392339Y-85743201D01*
X111392340Y-85743203D01*
X111616687Y-86078962D01*
X111680696Y-86233495D01*
X111771220Y-86452037D01*
X111850000Y-86848093D01*
X111850000Y-87251907D01*
X111771220Y-87647963D01*
X111680696Y-87866505D01*
X111616687Y-88021038D01*
X111616686Y-88021039D01*
X111392339Y-88356799D01*
X111106799Y-88642339D01*
X110937779Y-88755274D01*
X110771038Y-88866687D01*
X110616505Y-88930696D01*
X110397963Y-89021220D01*
X110199935Y-89060610D01*
X110001909Y-89100000D01*
X109598091Y-89100000D01*
X109400065Y-89060610D01*
X109202037Y-89021220D01*
X108983495Y-88930696D01*
X108828962Y-88866687D01*
X108662221Y-88755274D01*
X108493201Y-88642339D01*
X108207661Y-88356799D01*
X107983314Y-88021039D01*
X107983313Y-88021038D01*
X107919304Y-87866505D01*
X107828780Y-87647963D01*
X107750000Y-87251907D01*
X107750000Y-86848093D01*
X107828780Y-86452037D01*
X107919304Y-86233495D01*
X107983313Y-86078962D01*
X108207660Y-85743203D01*
X108207661Y-85743201D01*
X108493201Y-85457661D01*
X108828961Y-85233314D01*
X108828962Y-85233313D01*
X108983495Y-85169304D01*
X109202037Y-85078780D01*
X109400065Y-85039390D01*
X109598091Y-85000000D01*
X110001909Y-85000000D01*
X110199935Y-85039390D01*
G37*
G36*
X142272056Y-82660655D02*
G01*
X142371295Y-82701761D01*
X142460607Y-82761437D01*
X142536563Y-82837393D01*
X142596239Y-82926705D01*
X142637345Y-83025944D01*
X142658300Y-83131291D01*
X142658300Y-83238709D01*
X142637345Y-83344056D01*
X142596239Y-83443295D01*
X142536563Y-83532607D01*
X142460607Y-83608563D01*
X142371295Y-83668239D01*
X142272056Y-83709345D01*
X142166709Y-83730300D01*
X142059291Y-83730300D01*
X141953944Y-83709345D01*
X141854705Y-83668239D01*
X141765393Y-83608563D01*
X141689437Y-83532607D01*
X141629761Y-83443295D01*
X141588655Y-83344056D01*
X141567700Y-83238709D01*
X141567700Y-83131291D01*
X141588655Y-83025944D01*
X141629761Y-82926705D01*
X141689437Y-82837393D01*
X141765393Y-82761437D01*
X141854705Y-82701761D01*
X141953944Y-82660655D01*
X142059291Y-82639700D01*
X142166709Y-82639700D01*
X142272056Y-82660655D01*
G37*
G36*
X134652056Y-81644655D02*
G01*
X134751295Y-81685761D01*
X134840607Y-81745437D01*
X134916563Y-81821393D01*
X134976239Y-81910705D01*
X135017345Y-82009944D01*
X135038300Y-82115291D01*
X135038300Y-82222709D01*
X135017345Y-82328056D01*
X134976239Y-82427295D01*
X134916563Y-82516607D01*
X134840607Y-82592563D01*
X134751295Y-82652239D01*
X134652056Y-82693345D01*
X134546709Y-82714300D01*
X134439291Y-82714300D01*
X134333944Y-82693345D01*
X134234705Y-82652239D01*
X134145393Y-82592563D01*
X134069437Y-82516607D01*
X134009761Y-82427295D01*
X133968655Y-82328056D01*
X133947700Y-82222709D01*
X133947700Y-82115291D01*
X133968655Y-82009944D01*
X134009761Y-81910705D01*
X134069437Y-81821393D01*
X134145393Y-81745437D01*
X134234705Y-81685761D01*
X134333944Y-81644655D01*
X134439291Y-81623700D01*
X134546709Y-81623700D01*
X134652056Y-81644655D01*
G37*
G36*
X142272056Y-80628655D02*
G01*
X142371295Y-80669761D01*
X142460607Y-80729437D01*
X142536563Y-80805393D01*
X142596239Y-80894705D01*
X142637345Y-80993944D01*
X142658300Y-81099291D01*
X142658300Y-81206709D01*
X142637345Y-81312056D01*
X142596239Y-81411295D01*
X142536563Y-81500607D01*
X142460607Y-81576563D01*
X142371295Y-81636239D01*
X142272056Y-81677345D01*
X142166709Y-81698300D01*
X142059291Y-81698300D01*
X141953944Y-81677345D01*
X141854705Y-81636239D01*
X141765393Y-81576563D01*
X141689437Y-81500607D01*
X141629761Y-81411295D01*
X141588655Y-81312056D01*
X141567700Y-81206709D01*
X141567700Y-81099291D01*
X141588655Y-80993944D01*
X141629761Y-80894705D01*
X141689437Y-80805393D01*
X141765393Y-80729437D01*
X141854705Y-80669761D01*
X141953944Y-80628655D01*
X142059291Y-80607700D01*
X142166709Y-80607700D01*
X142272056Y-80628655D01*
G37*
G36*
X115155159Y-78030793D02*
G01*
X115189082Y-78044844D01*
X115237055Y-78064715D01*
X115310758Y-78113962D01*
X115373438Y-78176642D01*
X115422685Y-78250345D01*
X115442556Y-78298318D01*
X115456607Y-78332241D01*
X115473900Y-78419178D01*
X115473900Y-78507822D01*
X115456607Y-78594759D01*
X115442556Y-78628682D01*
X115422685Y-78676655D01*
X115373438Y-78750358D01*
X115310758Y-78813038D01*
X115237055Y-78862285D01*
X115189082Y-78882156D01*
X115155159Y-78896207D01*
X115068222Y-78913500D01*
X114979578Y-78913500D01*
X114892641Y-78896207D01*
X114858718Y-78882156D01*
X114810745Y-78862285D01*
X114737042Y-78813038D01*
X114674362Y-78750358D01*
X114625115Y-78676655D01*
X114605244Y-78628682D01*
X114591193Y-78594759D01*
X114573900Y-78507822D01*
X114573900Y-78419178D01*
X114591193Y-78332241D01*
X114605244Y-78298318D01*
X114625115Y-78250345D01*
X114674362Y-78176642D01*
X114737042Y-78113962D01*
X114810745Y-78064715D01*
X114858718Y-78044844D01*
X114892641Y-78030793D01*
X114979578Y-78013500D01*
X115068222Y-78013500D01*
X115155159Y-78030793D01*
G37*
G36*
X150207159Y-78030793D02*
G01*
X150241082Y-78044844D01*
X150289055Y-78064715D01*
X150362758Y-78113962D01*
X150425438Y-78176642D01*
X150474685Y-78250345D01*
X150494556Y-78298318D01*
X150508607Y-78332241D01*
X150525900Y-78419178D01*
X150525900Y-78507822D01*
X150508607Y-78594759D01*
X150494556Y-78628682D01*
X150474685Y-78676655D01*
X150425438Y-78750358D01*
X150362758Y-78813038D01*
X150289055Y-78862285D01*
X150241082Y-78882156D01*
X150207159Y-78896207D01*
X150120222Y-78913500D01*
X150031578Y-78913500D01*
X149944641Y-78896207D01*
X149910718Y-78882156D01*
X149862745Y-78862285D01*
X149789042Y-78813038D01*
X149726362Y-78750358D01*
X149677115Y-78676655D01*
X149657244Y-78628682D01*
X149643193Y-78594759D01*
X149625900Y-78507822D01*
X149625900Y-78419178D01*
X149643193Y-78332241D01*
X149657244Y-78298318D01*
X149677115Y-78250345D01*
X149726362Y-78176642D01*
X149789042Y-78113962D01*
X149862745Y-78064715D01*
X149910718Y-78044844D01*
X149944641Y-78030793D01*
X150031578Y-78013500D01*
X150120222Y-78013500D01*
X150207159Y-78030793D01*
G37*
G36*
X113605159Y-74280793D02*
G01*
X113639082Y-74294844D01*
X113687055Y-74314715D01*
X113760758Y-74363962D01*
X113823438Y-74426642D01*
X113872685Y-74500345D01*
X113892556Y-74548318D01*
X113906607Y-74582241D01*
X113923900Y-74669178D01*
X113923900Y-74757822D01*
X113906607Y-74844759D01*
X113894132Y-74874877D01*
X113872685Y-74926655D01*
X113843385Y-74970505D01*
X113838769Y-74979142D01*
X113835924Y-74988522D01*
X113834963Y-74998276D01*
X113835924Y-75008030D01*
X113838769Y-75017410D01*
X113843389Y-75026054D01*
X113849607Y-75033631D01*
X113857184Y-75039849D01*
X113865828Y-75044469D01*
X113875208Y-75047314D01*
X113884962Y-75048275D01*
X113894716Y-75047314D01*
X113904096Y-75044469D01*
X113912740Y-75039849D01*
X113920311Y-75033636D01*
X113972086Y-74981861D01*
X114242332Y-74801289D01*
X114242333Y-74801288D01*
X114418233Y-74728428D01*
X114542613Y-74676908D01*
X114727047Y-74640222D01*
X114861388Y-74613500D01*
X115186412Y-74613500D01*
X115320753Y-74640222D01*
X115505187Y-74676908D01*
X115629567Y-74728428D01*
X115805467Y-74801288D01*
X115805468Y-74801289D01*
X116075714Y-74981861D01*
X116127489Y-75033636D01*
X116135060Y-75039849D01*
X116143704Y-75044469D01*
X116153084Y-75047314D01*
X116162838Y-75048275D01*
X116172592Y-75047314D01*
X116181972Y-75044469D01*
X116190616Y-75039849D01*
X116198193Y-75033631D01*
X116204411Y-75026054D01*
X116209031Y-75017410D01*
X116211876Y-75008030D01*
X116212837Y-74998276D01*
X116211876Y-74988522D01*
X116209031Y-74979142D01*
X116204415Y-74970505D01*
X116175115Y-74926655D01*
X116153668Y-74874877D01*
X116141193Y-74844759D01*
X116123900Y-74757822D01*
X116123900Y-74669178D01*
X116141193Y-74582241D01*
X116155244Y-74548318D01*
X116175115Y-74500345D01*
X116224362Y-74426642D01*
X116287042Y-74363962D01*
X116360745Y-74314715D01*
X116408718Y-74294844D01*
X116442641Y-74280793D01*
X116529578Y-74263500D01*
X116618222Y-74263500D01*
X116705159Y-74280793D01*
X116739082Y-74294844D01*
X116787055Y-74314715D01*
X116860758Y-74363962D01*
X116923438Y-74426642D01*
X116972685Y-74500345D01*
X116992556Y-74548318D01*
X117006607Y-74582241D01*
X117023900Y-74669178D01*
X117023900Y-74757822D01*
X117006607Y-74844759D01*
X116994132Y-74874877D01*
X116972685Y-74926655D01*
X116923438Y-75000358D01*
X116860758Y-75063038D01*
X116787055Y-75112285D01*
X116739082Y-75132156D01*
X116705159Y-75146207D01*
X116618222Y-75163500D01*
X116529578Y-75163500D01*
X116442641Y-75146207D01*
X116408718Y-75132156D01*
X116360745Y-75112285D01*
X116316895Y-75082985D01*
X116308258Y-75078369D01*
X116298878Y-75075524D01*
X116289124Y-75074563D01*
X116279370Y-75075524D01*
X116269990Y-75078369D01*
X116261346Y-75082989D01*
X116253769Y-75089207D01*
X116247551Y-75096784D01*
X116242931Y-75105428D01*
X116240086Y-75114808D01*
X116239125Y-75124562D01*
X116240086Y-75134316D01*
X116242931Y-75143696D01*
X116247551Y-75152340D01*
X116253764Y-75159911D01*
X116305539Y-75211686D01*
X116396438Y-75347726D01*
X116486112Y-75481933D01*
X116513304Y-75547581D01*
X116610492Y-75782213D01*
X116633676Y-75898767D01*
X116665827Y-76060400D01*
X116673900Y-76100989D01*
X116673900Y-76426011D01*
X116626903Y-76662285D01*
X116610492Y-76744786D01*
X116486112Y-77045067D01*
X116486111Y-77045068D01*
X116305539Y-77315314D01*
X116253764Y-77367089D01*
X116247551Y-77374660D01*
X116242931Y-77383304D01*
X116240086Y-77392684D01*
X116239125Y-77402438D01*
X116240086Y-77412192D01*
X116242931Y-77421572D01*
X116247551Y-77430216D01*
X116253769Y-77437793D01*
X116261346Y-77444011D01*
X116269990Y-77448631D01*
X116279370Y-77451476D01*
X116289124Y-77452437D01*
X116298878Y-77451476D01*
X116308258Y-77448631D01*
X116316895Y-77444015D01*
X116360745Y-77414715D01*
X116413934Y-77392684D01*
X116442641Y-77380793D01*
X116529578Y-77363500D01*
X116618222Y-77363500D01*
X116705159Y-77380793D01*
X116733866Y-77392684D01*
X116787055Y-77414715D01*
X116860758Y-77463962D01*
X116923438Y-77526642D01*
X116972685Y-77600345D01*
X116992556Y-77648318D01*
X117006607Y-77682241D01*
X117023900Y-77769178D01*
X117023900Y-77857822D01*
X117006607Y-77944759D01*
X116992556Y-77978682D01*
X116972685Y-78026655D01*
X116923438Y-78100358D01*
X116860758Y-78163038D01*
X116787055Y-78212285D01*
X116739082Y-78232156D01*
X116705159Y-78246207D01*
X116618222Y-78263500D01*
X116529578Y-78263500D01*
X116442641Y-78246207D01*
X116408718Y-78232156D01*
X116360745Y-78212285D01*
X116287042Y-78163038D01*
X116224362Y-78100358D01*
X116175115Y-78026655D01*
X116155244Y-77978682D01*
X116141193Y-77944759D01*
X116123900Y-77857822D01*
X116123900Y-77769178D01*
X116141193Y-77682241D01*
X116155244Y-77648318D01*
X116175115Y-77600345D01*
X116204415Y-77556495D01*
X116209031Y-77547858D01*
X116211876Y-77538478D01*
X116212837Y-77528724D01*
X116211876Y-77518970D01*
X116209031Y-77509590D01*
X116204411Y-77500946D01*
X116198193Y-77493369D01*
X116190616Y-77487151D01*
X116181972Y-77482531D01*
X116172592Y-77479686D01*
X116162838Y-77478725D01*
X116153084Y-77479686D01*
X116143704Y-77482531D01*
X116135060Y-77487151D01*
X116127489Y-77493364D01*
X116075714Y-77545139D01*
X116058708Y-77556502D01*
X115805467Y-77725712D01*
X115629567Y-77798572D01*
X115505187Y-77850092D01*
X115466330Y-77857821D01*
X115186412Y-77913500D01*
X114861388Y-77913500D01*
X114581470Y-77857821D01*
X114542613Y-77850092D01*
X114418233Y-77798572D01*
X114242333Y-77725712D01*
X113989092Y-77556502D01*
X113972086Y-77545139D01*
X113920311Y-77493364D01*
X113912740Y-77487151D01*
X113904096Y-77482531D01*
X113894716Y-77479686D01*
X113884962Y-77478725D01*
X113875208Y-77479686D01*
X113865828Y-77482531D01*
X113857184Y-77487151D01*
X113849607Y-77493369D01*
X113843389Y-77500946D01*
X113838769Y-77509590D01*
X113835924Y-77518970D01*
X113834963Y-77528724D01*
X113835924Y-77538478D01*
X113838769Y-77547858D01*
X113843385Y-77556495D01*
X113872685Y-77600345D01*
X113892556Y-77648318D01*
X113906607Y-77682241D01*
X113923900Y-77769178D01*
X113923900Y-77857822D01*
X113906607Y-77944759D01*
X113892556Y-77978682D01*
X113872685Y-78026655D01*
X113823438Y-78100358D01*
X113760758Y-78163038D01*
X113687055Y-78212285D01*
X113639082Y-78232156D01*
X113605159Y-78246207D01*
X113518222Y-78263500D01*
X113429578Y-78263500D01*
X113342641Y-78246207D01*
X113308718Y-78232156D01*
X113260745Y-78212285D01*
X113187042Y-78163038D01*
X113124362Y-78100358D01*
X113075115Y-78026655D01*
X113055244Y-77978682D01*
X113041193Y-77944759D01*
X113023900Y-77857822D01*
X113023900Y-77769178D01*
X113041193Y-77682241D01*
X113055244Y-77648318D01*
X113075115Y-77600345D01*
X113124362Y-77526642D01*
X113187042Y-77463962D01*
X113260745Y-77414715D01*
X113313934Y-77392684D01*
X113342641Y-77380793D01*
X113429578Y-77363500D01*
X113518222Y-77363500D01*
X113605159Y-77380793D01*
X113633866Y-77392684D01*
X113687055Y-77414715D01*
X113730905Y-77444015D01*
X113739542Y-77448631D01*
X113748922Y-77451476D01*
X113758676Y-77452437D01*
X113768430Y-77451476D01*
X113777810Y-77448631D01*
X113786454Y-77444011D01*
X113794031Y-77437793D01*
X113800249Y-77430216D01*
X113804869Y-77421572D01*
X113807714Y-77412192D01*
X113808675Y-77402438D01*
X113807714Y-77392684D01*
X113804869Y-77383304D01*
X113800249Y-77374660D01*
X113794036Y-77367089D01*
X113742261Y-77315314D01*
X113561689Y-77045068D01*
X113561688Y-77045067D01*
X113437308Y-76744786D01*
X113420898Y-76662285D01*
X113373900Y-76426011D01*
X113373900Y-76100989D01*
X113381974Y-76060400D01*
X113414124Y-75898767D01*
X113437308Y-75782213D01*
X113534496Y-75547581D01*
X113561688Y-75481933D01*
X113651362Y-75347726D01*
X113742261Y-75211686D01*
X113794036Y-75159911D01*
X113800249Y-75152340D01*
X113804869Y-75143696D01*
X113807714Y-75134316D01*
X113808675Y-75124562D01*
X113807714Y-75114808D01*
X113804869Y-75105428D01*
X113800249Y-75096784D01*
X113794031Y-75089207D01*
X113786454Y-75082989D01*
X113777810Y-75078369D01*
X113768430Y-75075524D01*
X113758676Y-75074563D01*
X113748922Y-75075524D01*
X113739542Y-75078369D01*
X113730905Y-75082985D01*
X113687055Y-75112285D01*
X113639082Y-75132156D01*
X113605159Y-75146207D01*
X113518222Y-75163500D01*
X113429578Y-75163500D01*
X113342641Y-75146207D01*
X113308718Y-75132156D01*
X113260745Y-75112285D01*
X113187042Y-75063038D01*
X113124362Y-75000358D01*
X113075115Y-74926655D01*
X113053668Y-74874877D01*
X113041193Y-74844759D01*
X113023900Y-74757822D01*
X113023900Y-74669178D01*
X113041193Y-74582241D01*
X113055244Y-74548318D01*
X113075115Y-74500345D01*
X113124362Y-74426642D01*
X113187042Y-74363962D01*
X113260745Y-74314715D01*
X113308718Y-74294844D01*
X113342641Y-74280793D01*
X113429578Y-74263500D01*
X113518222Y-74263500D01*
X113605159Y-74280793D01*
G37*
G36*
X148657159Y-74280793D02*
G01*
X148691082Y-74294844D01*
X148739055Y-74314715D01*
X148812758Y-74363962D01*
X148875438Y-74426642D01*
X148924685Y-74500345D01*
X148944556Y-74548318D01*
X148958607Y-74582241D01*
X148975900Y-74669178D01*
X148975900Y-74757822D01*
X148958607Y-74844759D01*
X148946132Y-74874877D01*
X148924685Y-74926655D01*
X148895385Y-74970505D01*
X148890769Y-74979142D01*
X148887924Y-74988522D01*
X148886963Y-74998276D01*
X148887924Y-75008030D01*
X148890769Y-75017410D01*
X148895389Y-75026054D01*
X148901607Y-75033631D01*
X148909184Y-75039849D01*
X148917828Y-75044469D01*
X148927208Y-75047314D01*
X148936962Y-75048275D01*
X148946716Y-75047314D01*
X148956096Y-75044469D01*
X148964740Y-75039849D01*
X148972311Y-75033636D01*
X149024086Y-74981861D01*
X149294332Y-74801289D01*
X149294333Y-74801288D01*
X149470233Y-74728428D01*
X149594613Y-74676908D01*
X149779047Y-74640222D01*
X149913388Y-74613500D01*
X150238412Y-74613500D01*
X150372753Y-74640222D01*
X150557187Y-74676908D01*
X150681567Y-74728428D01*
X150857467Y-74801288D01*
X150857468Y-74801289D01*
X151127714Y-74981861D01*
X151179489Y-75033636D01*
X151187060Y-75039849D01*
X151195704Y-75044469D01*
X151205084Y-75047314D01*
X151214838Y-75048275D01*
X151224592Y-75047314D01*
X151233972Y-75044469D01*
X151242616Y-75039849D01*
X151250193Y-75033631D01*
X151256411Y-75026054D01*
X151261031Y-75017410D01*
X151263876Y-75008030D01*
X151264837Y-74998276D01*
X151263876Y-74988522D01*
X151261031Y-74979142D01*
X151256415Y-74970505D01*
X151227115Y-74926655D01*
X151205668Y-74874877D01*
X151193193Y-74844759D01*
X151175900Y-74757822D01*
X151175900Y-74669178D01*
X151193193Y-74582241D01*
X151207244Y-74548318D01*
X151227115Y-74500345D01*
X151276362Y-74426642D01*
X151339042Y-74363962D01*
X151412745Y-74314715D01*
X151460718Y-74294844D01*
X151494641Y-74280793D01*
X151581578Y-74263500D01*
X151670222Y-74263500D01*
X151757159Y-74280793D01*
X151791082Y-74294844D01*
X151839055Y-74314715D01*
X151912758Y-74363962D01*
X151975438Y-74426642D01*
X152024685Y-74500345D01*
X152044556Y-74548318D01*
X152058607Y-74582241D01*
X152075900Y-74669178D01*
X152075900Y-74757822D01*
X152058607Y-74844759D01*
X152046132Y-74874877D01*
X152024685Y-74926655D01*
X151975438Y-75000358D01*
X151912758Y-75063038D01*
X151839055Y-75112285D01*
X151791082Y-75132156D01*
X151757159Y-75146207D01*
X151670222Y-75163500D01*
X151581578Y-75163500D01*
X151494641Y-75146207D01*
X151460718Y-75132156D01*
X151412745Y-75112285D01*
X151368895Y-75082985D01*
X151360258Y-75078369D01*
X151350878Y-75075524D01*
X151341124Y-75074563D01*
X151331370Y-75075524D01*
X151321990Y-75078369D01*
X151313346Y-75082989D01*
X151305769Y-75089207D01*
X151299551Y-75096784D01*
X151294931Y-75105428D01*
X151292086Y-75114808D01*
X151291125Y-75124562D01*
X151292086Y-75134316D01*
X151294931Y-75143696D01*
X151299551Y-75152340D01*
X151305764Y-75159911D01*
X151357539Y-75211686D01*
X151448438Y-75347726D01*
X151538112Y-75481933D01*
X151565304Y-75547581D01*
X151662492Y-75782213D01*
X151685676Y-75898767D01*
X151717827Y-76060400D01*
X151725900Y-76100989D01*
X151725900Y-76426011D01*
X151678903Y-76662285D01*
X151662492Y-76744786D01*
X151538112Y-77045067D01*
X151538111Y-77045068D01*
X151357539Y-77315314D01*
X151305764Y-77367089D01*
X151299551Y-77374660D01*
X151294931Y-77383304D01*
X151292086Y-77392684D01*
X151291125Y-77402438D01*
X151292086Y-77412192D01*
X151294931Y-77421572D01*
X151299551Y-77430216D01*
X151305769Y-77437793D01*
X151313346Y-77444011D01*
X151321990Y-77448631D01*
X151331370Y-77451476D01*
X151341124Y-77452437D01*
X151350878Y-77451476D01*
X151360258Y-77448631D01*
X151368895Y-77444015D01*
X151412745Y-77414715D01*
X151465934Y-77392684D01*
X151494641Y-77380793D01*
X151581578Y-77363500D01*
X151670222Y-77363500D01*
X151757159Y-77380793D01*
X151785866Y-77392684D01*
X151839055Y-77414715D01*
X151912758Y-77463962D01*
X151975438Y-77526642D01*
X152024685Y-77600345D01*
X152044556Y-77648318D01*
X152058607Y-77682241D01*
X152075900Y-77769178D01*
X152075900Y-77857822D01*
X152058607Y-77944759D01*
X152044556Y-77978682D01*
X152024685Y-78026655D01*
X151975438Y-78100358D01*
X151912758Y-78163038D01*
X151839055Y-78212285D01*
X151791082Y-78232156D01*
X151757159Y-78246207D01*
X151670222Y-78263500D01*
X151581578Y-78263500D01*
X151494641Y-78246207D01*
X151460718Y-78232156D01*
X151412745Y-78212285D01*
X151339042Y-78163038D01*
X151276362Y-78100358D01*
X151227115Y-78026655D01*
X151207244Y-77978682D01*
X151193193Y-77944759D01*
X151175900Y-77857822D01*
X151175900Y-77769178D01*
X151193193Y-77682241D01*
X151207244Y-77648318D01*
X151227115Y-77600345D01*
X151256415Y-77556495D01*
X151261031Y-77547858D01*
X151263876Y-77538478D01*
X151264837Y-77528724D01*
X151263876Y-77518970D01*
X151261031Y-77509590D01*
X151256411Y-77500946D01*
X151250193Y-77493369D01*
X151242616Y-77487151D01*
X151233972Y-77482531D01*
X151224592Y-77479686D01*
X151214838Y-77478725D01*
X151205084Y-77479686D01*
X151195704Y-77482531D01*
X151187060Y-77487151D01*
X151179489Y-77493364D01*
X151127714Y-77545139D01*
X151110708Y-77556502D01*
X150857467Y-77725712D01*
X150681567Y-77798572D01*
X150557187Y-77850092D01*
X150518330Y-77857821D01*
X150238412Y-77913500D01*
X149913388Y-77913500D01*
X149633470Y-77857821D01*
X149594613Y-77850092D01*
X149470233Y-77798572D01*
X149294333Y-77725712D01*
X149041092Y-77556502D01*
X149024086Y-77545139D01*
X148972311Y-77493364D01*
X148964740Y-77487151D01*
X148956096Y-77482531D01*
X148946716Y-77479686D01*
X148936962Y-77478725D01*
X148927208Y-77479686D01*
X148917828Y-77482531D01*
X148909184Y-77487151D01*
X148901607Y-77493369D01*
X148895389Y-77500946D01*
X148890769Y-77509590D01*
X148887924Y-77518970D01*
X148886963Y-77528724D01*
X148887924Y-77538478D01*
X148890769Y-77547858D01*
X148895385Y-77556495D01*
X148924685Y-77600345D01*
X148944556Y-77648318D01*
X148958607Y-77682241D01*
X148975900Y-77769178D01*
X148975900Y-77857822D01*
X148958607Y-77944759D01*
X148944556Y-77978682D01*
X148924685Y-78026655D01*
X148875438Y-78100358D01*
X148812758Y-78163038D01*
X148739055Y-78212285D01*
X148691082Y-78232156D01*
X148657159Y-78246207D01*
X148570222Y-78263500D01*
X148481578Y-78263500D01*
X148394641Y-78246207D01*
X148360718Y-78232156D01*
X148312745Y-78212285D01*
X148239042Y-78163038D01*
X148176362Y-78100358D01*
X148127115Y-78026655D01*
X148107244Y-77978682D01*
X148093193Y-77944759D01*
X148075900Y-77857822D01*
X148075900Y-77769178D01*
X148093193Y-77682241D01*
X148107244Y-77648318D01*
X148127115Y-77600345D01*
X148176362Y-77526642D01*
X148239042Y-77463962D01*
X148312745Y-77414715D01*
X148365934Y-77392684D01*
X148394641Y-77380793D01*
X148481578Y-77363500D01*
X148570222Y-77363500D01*
X148657159Y-77380793D01*
X148685866Y-77392684D01*
X148739055Y-77414715D01*
X148782905Y-77444015D01*
X148791542Y-77448631D01*
X148800922Y-77451476D01*
X148810676Y-77452437D01*
X148820430Y-77451476D01*
X148829810Y-77448631D01*
X148838454Y-77444011D01*
X148846031Y-77437793D01*
X148852249Y-77430216D01*
X148856869Y-77421572D01*
X148859714Y-77412192D01*
X148860675Y-77402438D01*
X148859714Y-77392684D01*
X148856869Y-77383304D01*
X148852249Y-77374660D01*
X148846036Y-77367089D01*
X148794261Y-77315314D01*
X148613689Y-77045068D01*
X148613688Y-77045067D01*
X148489308Y-76744786D01*
X148472898Y-76662285D01*
X148425900Y-76426011D01*
X148425900Y-76100989D01*
X148433974Y-76060400D01*
X148466124Y-75898767D01*
X148489308Y-75782213D01*
X148586496Y-75547581D01*
X148613688Y-75481933D01*
X148703362Y-75347726D01*
X148794261Y-75211686D01*
X148846036Y-75159911D01*
X148852249Y-75152340D01*
X148856869Y-75143696D01*
X148859714Y-75134316D01*
X148860675Y-75124562D01*
X148859714Y-75114808D01*
X148856869Y-75105428D01*
X148852249Y-75096784D01*
X148846031Y-75089207D01*
X148838454Y-75082989D01*
X148829810Y-75078369D01*
X148820430Y-75075524D01*
X148810676Y-75074563D01*
X148800922Y-75075524D01*
X148791542Y-75078369D01*
X148782905Y-75082985D01*
X148739055Y-75112285D01*
X148691082Y-75132156D01*
X148657159Y-75146207D01*
X148570222Y-75163500D01*
X148481578Y-75163500D01*
X148394641Y-75146207D01*
X148360718Y-75132156D01*
X148312745Y-75112285D01*
X148239042Y-75063038D01*
X148176362Y-75000358D01*
X148127115Y-74926655D01*
X148105668Y-74874877D01*
X148093193Y-74844759D01*
X148075900Y-74757822D01*
X148075900Y-74669178D01*
X148093193Y-74582241D01*
X148107244Y-74548318D01*
X148127115Y-74500345D01*
X148176362Y-74426642D01*
X148239042Y-74363962D01*
X148312745Y-74314715D01*
X148360718Y-74294844D01*
X148394641Y-74280793D01*
X148481578Y-74263500D01*
X148570222Y-74263500D01*
X148657159Y-74280793D01*
G37*
G36*
X148007159Y-75830793D02*
G01*
X148041082Y-75844844D01*
X148089055Y-75864715D01*
X148162758Y-75913962D01*
X148225438Y-75976642D01*
X148274685Y-76050345D01*
X148294556Y-76098318D01*
X148308607Y-76132241D01*
X148325900Y-76219178D01*
X148325900Y-76307822D01*
X148308607Y-76394759D01*
X148295662Y-76426011D01*
X148274685Y-76476655D01*
X148225438Y-76550358D01*
X148162758Y-76613038D01*
X148089055Y-76662285D01*
X148041082Y-76682156D01*
X148007159Y-76696207D01*
X147920222Y-76713500D01*
X147831578Y-76713500D01*
X147744641Y-76696207D01*
X147710718Y-76682156D01*
X147662745Y-76662285D01*
X147589042Y-76613038D01*
X147526362Y-76550358D01*
X147477115Y-76476655D01*
X147456138Y-76426011D01*
X147443193Y-76394759D01*
X147425900Y-76307822D01*
X147425900Y-76219178D01*
X147443193Y-76132241D01*
X147457244Y-76098318D01*
X147477115Y-76050345D01*
X147526362Y-75976642D01*
X147589042Y-75913962D01*
X147662745Y-75864715D01*
X147710718Y-75844844D01*
X147744641Y-75830793D01*
X147831578Y-75813500D01*
X147920222Y-75813500D01*
X148007159Y-75830793D01*
G37*
G36*
X117355159Y-75830793D02*
G01*
X117389082Y-75844844D01*
X117437055Y-75864715D01*
X117510758Y-75913962D01*
X117573438Y-75976642D01*
X117622685Y-76050345D01*
X117642556Y-76098318D01*
X117656607Y-76132241D01*
X117673900Y-76219178D01*
X117673900Y-76307822D01*
X117656607Y-76394759D01*
X117643662Y-76426011D01*
X117622685Y-76476655D01*
X117573438Y-76550358D01*
X117510758Y-76613038D01*
X117437055Y-76662285D01*
X117389082Y-76682156D01*
X117355159Y-76696207D01*
X117268222Y-76713500D01*
X117179578Y-76713500D01*
X117092641Y-76696207D01*
X117058718Y-76682156D01*
X117010745Y-76662285D01*
X116937042Y-76613038D01*
X116874362Y-76550358D01*
X116825115Y-76476655D01*
X116804138Y-76426011D01*
X116791193Y-76394759D01*
X116773900Y-76307822D01*
X116773900Y-76219178D01*
X116791193Y-76132241D01*
X116805244Y-76098318D01*
X116825115Y-76050345D01*
X116874362Y-75976642D01*
X116937042Y-75913962D01*
X117010745Y-75864715D01*
X117058718Y-75844844D01*
X117092641Y-75830793D01*
X117179578Y-75813500D01*
X117268222Y-75813500D01*
X117355159Y-75830793D01*
G37*
G36*
X112955159Y-75830793D02*
G01*
X112989082Y-75844844D01*
X113037055Y-75864715D01*
X113110758Y-75913962D01*
X113173438Y-75976642D01*
X113222685Y-76050345D01*
X113242556Y-76098318D01*
X113256607Y-76132241D01*
X113273900Y-76219178D01*
X113273900Y-76307822D01*
X113256607Y-76394759D01*
X113243662Y-76426011D01*
X113222685Y-76476655D01*
X113173438Y-76550358D01*
X113110758Y-76613038D01*
X113037055Y-76662285D01*
X112989082Y-76682156D01*
X112955159Y-76696207D01*
X112868222Y-76713500D01*
X112779578Y-76713500D01*
X112692641Y-76696207D01*
X112658718Y-76682156D01*
X112610745Y-76662285D01*
X112537042Y-76613038D01*
X112474362Y-76550358D01*
X112425115Y-76476655D01*
X112404138Y-76426011D01*
X112391193Y-76394759D01*
X112373900Y-76307822D01*
X112373900Y-76219178D01*
X112391193Y-76132241D01*
X112405244Y-76098318D01*
X112425115Y-76050345D01*
X112474362Y-75976642D01*
X112537042Y-75913962D01*
X112610745Y-75864715D01*
X112658718Y-75844844D01*
X112692641Y-75830793D01*
X112779578Y-75813500D01*
X112868222Y-75813500D01*
X112955159Y-75830793D01*
G37*
G36*
X152407159Y-75830793D02*
G01*
X152441082Y-75844844D01*
X152489055Y-75864715D01*
X152562758Y-75913962D01*
X152625438Y-75976642D01*
X152674685Y-76050345D01*
X152694556Y-76098318D01*
X152708607Y-76132241D01*
X152725900Y-76219178D01*
X152725900Y-76307822D01*
X152708607Y-76394759D01*
X152695662Y-76426011D01*
X152674685Y-76476655D01*
X152625438Y-76550358D01*
X152562758Y-76613038D01*
X152489055Y-76662285D01*
X152441082Y-76682156D01*
X152407159Y-76696207D01*
X152320222Y-76713500D01*
X152231578Y-76713500D01*
X152144641Y-76696207D01*
X152110718Y-76682156D01*
X152062745Y-76662285D01*
X151989042Y-76613038D01*
X151926362Y-76550358D01*
X151877115Y-76476655D01*
X151856138Y-76426011D01*
X151843193Y-76394759D01*
X151825900Y-76307822D01*
X151825900Y-76219178D01*
X151843193Y-76132241D01*
X151857244Y-76098318D01*
X151877115Y-76050345D01*
X151926362Y-75976642D01*
X151989042Y-75913962D01*
X152062745Y-75864715D01*
X152110718Y-75844844D01*
X152144641Y-75830793D01*
X152231578Y-75813500D01*
X152320222Y-75813500D01*
X152407159Y-75830793D01*
G37*
G36*
X159164381Y-74640222D02*
G01*
X159234289Y-74669179D01*
X159296143Y-74694800D01*
X159414723Y-74774033D01*
X159515567Y-74874877D01*
X159591503Y-74988522D01*
X159594801Y-74993459D01*
X159649378Y-75125219D01*
X159677200Y-75265091D01*
X159677200Y-75407709D01*
X159649378Y-75547581D01*
X159594801Y-75679341D01*
X159526064Y-75782214D01*
X159515567Y-75797923D01*
X159414723Y-75898767D01*
X159296143Y-75978000D01*
X159296142Y-75978001D01*
X159296141Y-75978001D01*
X159164381Y-76032578D01*
X159024509Y-76060400D01*
X158881891Y-76060400D01*
X158742019Y-76032578D01*
X158610259Y-75978001D01*
X158610258Y-75978001D01*
X158610257Y-75978000D01*
X158491677Y-75898767D01*
X158390833Y-75797923D01*
X158380337Y-75782214D01*
X158311599Y-75679341D01*
X158257022Y-75547581D01*
X158229200Y-75407709D01*
X158229200Y-75265091D01*
X158257022Y-75125219D01*
X158311599Y-74993459D01*
X158314898Y-74988522D01*
X158390833Y-74874877D01*
X158491677Y-74774033D01*
X158610257Y-74694800D01*
X158672111Y-74669179D01*
X158742019Y-74640222D01*
X158881891Y-74612400D01*
X159024509Y-74612400D01*
X159164381Y-74640222D01*
G37*
G36*
X106357781Y-74640222D02*
G01*
X106427689Y-74669179D01*
X106489543Y-74694800D01*
X106608123Y-74774033D01*
X106708967Y-74874877D01*
X106784903Y-74988522D01*
X106788201Y-74993459D01*
X106842778Y-75125219D01*
X106870600Y-75265091D01*
X106870600Y-75407709D01*
X106842778Y-75547581D01*
X106788201Y-75679341D01*
X106719464Y-75782214D01*
X106708967Y-75797923D01*
X106608123Y-75898767D01*
X106489543Y-75978000D01*
X106489542Y-75978001D01*
X106489541Y-75978001D01*
X106357781Y-76032578D01*
X106217909Y-76060400D01*
X106075291Y-76060400D01*
X105935419Y-76032578D01*
X105803659Y-75978001D01*
X105803658Y-75978001D01*
X105803657Y-75978000D01*
X105685077Y-75898767D01*
X105584233Y-75797923D01*
X105573737Y-75782214D01*
X105504999Y-75679341D01*
X105450422Y-75547581D01*
X105422600Y-75407709D01*
X105422600Y-75265091D01*
X105450422Y-75125219D01*
X105504999Y-74993459D01*
X105508298Y-74988522D01*
X105584233Y-74874877D01*
X105685077Y-74774033D01*
X105803657Y-74694800D01*
X105865511Y-74669179D01*
X105935419Y-74640222D01*
X106075291Y-74612400D01*
X106217909Y-74612400D01*
X106357781Y-74640222D01*
G37*
G36*
X150207159Y-73630793D02*
G01*
X150241082Y-73644844D01*
X150289055Y-73664715D01*
X150362758Y-73713962D01*
X150425438Y-73776642D01*
X150474685Y-73850345D01*
X150494556Y-73898318D01*
X150508607Y-73932241D01*
X150525900Y-74019178D01*
X150525900Y-74107822D01*
X150508607Y-74194759D01*
X150494556Y-74228682D01*
X150474685Y-74276655D01*
X150425438Y-74350358D01*
X150362758Y-74413038D01*
X150289055Y-74462285D01*
X150241082Y-74482156D01*
X150207159Y-74496207D01*
X150120222Y-74513500D01*
X150031578Y-74513500D01*
X149944641Y-74496207D01*
X149910718Y-74482156D01*
X149862745Y-74462285D01*
X149789042Y-74413038D01*
X149726362Y-74350358D01*
X149677115Y-74276655D01*
X149657244Y-74228682D01*
X149643193Y-74194759D01*
X149625900Y-74107822D01*
X149625900Y-74019178D01*
X149643193Y-73932241D01*
X149657244Y-73898318D01*
X149677115Y-73850345D01*
X149726362Y-73776642D01*
X149789042Y-73713962D01*
X149862745Y-73664715D01*
X149910718Y-73644844D01*
X149944641Y-73630793D01*
X150031578Y-73613500D01*
X150120222Y-73613500D01*
X150207159Y-73630793D01*
G37*
G36*
X115155159Y-73630793D02*
G01*
X115189082Y-73644844D01*
X115237055Y-73664715D01*
X115310758Y-73713962D01*
X115373438Y-73776642D01*
X115422685Y-73850345D01*
X115442556Y-73898318D01*
X115456607Y-73932241D01*
X115473900Y-74019178D01*
X115473900Y-74107822D01*
X115456607Y-74194759D01*
X115442556Y-74228682D01*
X115422685Y-74276655D01*
X115373438Y-74350358D01*
X115310758Y-74413038D01*
X115237055Y-74462285D01*
X115189082Y-74482156D01*
X115155159Y-74496207D01*
X115068222Y-74513500D01*
X114979578Y-74513500D01*
X114892641Y-74496207D01*
X114858718Y-74482156D01*
X114810745Y-74462285D01*
X114737042Y-74413038D01*
X114674362Y-74350358D01*
X114625115Y-74276655D01*
X114605244Y-74228682D01*
X114591193Y-74194759D01*
X114573900Y-74107822D01*
X114573900Y-74019178D01*
X114591193Y-73932241D01*
X114605244Y-73898318D01*
X114625115Y-73850345D01*
X114674362Y-73776642D01*
X114737042Y-73713962D01*
X114810745Y-73664715D01*
X114858718Y-73644844D01*
X114892641Y-73630793D01*
X114979578Y-73613500D01*
X115068222Y-73613500D01*
X115155159Y-73630793D01*
G37*
M02*
